<svg width="1440" height="3529" viewBox="0 0 1440 3529" fill="none" xmlns="http://www.w3.org/2000/svg">
<rect width="1440" height="136" transform="translate(0 3393)" fill="#0D0E13"/>
<g clip-path="url(#clip0_508_1098)">
<rect width="1440" height="1361" transform="translate(0 2032)" fill="#0D0E13"/>
<ellipse cx="117.352" cy="3118.88" rx="0.452189" ry="0.383456" fill="#C4C4C4"/>
<ellipse cx="78.916" cy="3208.34" rx="0.904378" ry="0.767878" fill="#C4C4C4"/>
<ellipse cx="147.196" cy="2983.74" rx="0.452189" ry="0.383456" fill="#C4C4C4"/>
<ellipse cx="174.328" cy="2830.93" rx="0.452189" ry="0.383456" fill="#C4C4C4"/>
<ellipse cx="135.892" cy="3235.98" rx="0.904378" ry="0.767878" fill="#C4C4C4"/>
<ellipse cx="40.9321" cy="2976.44" rx="0.904378" ry="0.767878" fill="#C4C4C4"/>
<ellipse cx="23.7489" cy="3138.46" rx="0.904378" ry="0.767878" fill="#C4C4C4"/>
<ellipse cx="279.236" cy="3010.61" rx="0.452189" ry="0.383456" fill="#C4C4C4"/>
<ellipse cx="30.9841" cy="3275.15" rx="0.904378" ry="0.767878" fill="#C4C4C4"/>
<ellipse cx="75.2984" cy="3050.93" rx="0.904378" ry="0.767878" fill="#C4C4C4"/>
<ellipse cx="37.3145" cy="3246.74" rx="0.904378" ry="0.767878" fill="#C4C4C4"/>
<ellipse cx="329.881" cy="2909.25" rx="0.452189" ry="0.383456" fill="#C4C4C4"/>
<ellipse cx="124.587" cy="2920" rx="0.452189" ry="0.383456" fill="#C4C4C4"/>
<ellipse cx="281.949" cy="2982.2" rx="0.452189" ry="0.383456" fill="#C4C4C4"/>
<ellipse cx="176.137" cy="2891.59" rx="0.452189" ry="0.383456" fill="#C4C4C4"/>
<ellipse cx="198.746" cy="2947.65" rx="0.452189" ry="0.383456" fill="#C4C4C4"/>
<ellipse cx="1069.21" cy="3016.37" rx="0.904378" ry="0.767878" fill="#C4C4C4"/>
<ellipse cx="1060.17" cy="2986.42" rx="0.904378" ry="0.767878" fill="#C4C4C4"/>
<ellipse cx="290.54" cy="2892.74" rx="0.904378" ry="0.767878" fill="#C4C4C4"/>
<ellipse cx="711.076" cy="2730.72" rx="0.904378" ry="0.767878" fill="#C4C4C4"/>
<ellipse cx="321.289" cy="2969.53" rx="0.904378" ry="0.767878" fill="#C4C4C4"/>
<ellipse cx="292.349" cy="2956.48" rx="0.904378" ry="0.767878" fill="#C4C4C4"/>
<ellipse cx="801.514" cy="2700.77" rx="0.904378" ry="0.767878" fill="#C4C4C4"/>
<ellipse cx="205.529" cy="2941.89" rx="0.904378" ry="0.767878" fill="#C4C4C4"/>
<ellipse cx="8.37435" cy="3203.73" rx="0.904378" ry="0.767878" fill="#C4C4C4"/>
<ellipse cx="639.63" cy="2858.96" rx="0.904378" ry="0.767878" fill="#C4C4C4"/>
<ellipse cx="1124.83" cy="3131.17" rx="0.452189" ry="0.383456" fill="#C4C4C4"/>
<ellipse cx="725.094" cy="2707.3" rx="0.452189" ry="0.383456" fill="#C4C4C4"/>
<ellipse cx="819.149" cy="2738.78" rx="0.452189" ry="0.383456" fill="#C4C4C4"/>
<ellipse cx="1161.91" cy="2732.64" rx="0.452189" ry="0.383456" fill="#C4C4C4"/>
<ellipse cx="185.18" cy="3072.04" rx="0.452189" ry="0.383456" fill="#C4C4C4"/>
<ellipse cx="1118.5" cy="2969.15" rx="0.452189" ry="0.383456" fill="#C4C4C4"/>
<ellipse cx="613.856" cy="2791" rx="0.452189" ry="0.383456" fill="#C4C4C4"/>
<ellipse cx="1120.31" cy="3101.99" rx="0.452189" ry="0.383456" fill="#C4C4C4"/>
<ellipse cx="659.979" cy="2761.82" rx="0.452189" ry="0.383456" fill="#C4C4C4"/>
<ellipse cx="653.648" cy="2711.14" rx="0.452189" ry="0.383456" fill="#C4C4C4"/>
<ellipse cx="385.5" cy="3020.98" rx="0.904378" ry="0.767878" fill="#C4C4C4"/>
<ellipse cx="281.949" cy="3104.29" rx="0.452189" ry="0.383456" fill="#C4C4C4"/>
<ellipse cx="624.708" cy="2714.98" rx="0.452189" ry="0.383456" fill="#C4C4C4"/>
<ellipse cx="595.768" cy="2701.92" rx="0.452189" ry="0.383456" fill="#C4C4C4"/>
<ellipse cx="403.135" cy="2732.64" rx="0.452189" ry="0.383456" fill="#C4C4C4"/>
<ellipse cx="394.092" cy="2702.69" rx="0.452189" ry="0.383456" fill="#C4C4C4"/>
<ellipse cx="310.889" cy="2717.28" rx="0.452189" ry="0.383456" fill="#C4C4C4"/>
<ellipse cx="390.474" cy="2727.26" rx="0.452189" ry="0.383456" fill="#C4C4C4"/>
<ellipse cx="1290.78" cy="2709.22" rx="0.904378" ry="0.767878" fill="#C4C4C4"/>
<ellipse cx="1110.36" cy="2929.98" rx="0.452189" ry="0.383456" fill="#C4C4C4"/>
<ellipse cx="223.617" cy="2124.87" rx="0.904378" ry="0.767878" fill="#C4C4C4"/>
<ellipse cx="214.573" cy="2094.92" rx="0.904378" ry="0.767878" fill="#C4C4C4"/>
<ellipse cx="161.666" cy="2281.9" rx="0.452189" ry="0.383456" fill="#C4C4C4"/>
<ellipse cx="267.479" cy="2311.07" rx="0.452189" ry="0.383456" fill="#C4C4C4"/>
<ellipse cx="345.255" cy="2291.11" rx="0.452189" ry="0.383456" fill="#C4C4C4"/>
<ellipse cx="296.871" cy="2339.1" rx="0.904378" ry="0.767878" fill="#C4C4C4"/>
<ellipse cx="224.069" cy="2304.16" rx="0.452189" ry="0.383456" fill="#C4C4C4"/>
<ellipse cx="272.905" cy="2077.64" rx="0.452189" ry="0.383456" fill="#C4C4C4"/>
<ellipse cx="274.714" cy="2210.48" rx="0.452189" ry="0.383456" fill="#C4C4C4"/>
<ellipse cx="163.475" cy="2185.91" rx="0.452189" ry="0.383456" fill="#C4C4C4"/>
<ellipse cx="157.144" cy="2135.23" rx="0.452189" ry="0.383456" fill="#C4C4C4"/>
<ellipse cx="157.144" cy="2036.94" rx="0.452189" ry="0.383456" fill="#C4C4C4"/>
<ellipse cx="264.766" cy="2038.48" rx="0.452189" ry="0.383456" fill="#C4C4C4"/>
<ellipse cx="1292.14" cy="2874.7" rx="0.452189" ry="0.383456" fill="#C4C4C4"/>
<ellipse cx="1175.02" cy="2787.54" rx="0.904378" ry="0.767878" fill="#C4C4C4"/>
<ellipse cx="329.881" cy="2841.68" rx="0.452189" ry="0.383456" fill="#C4C4C4"/>
<ellipse cx="365.604" cy="2826.71" rx="0.904378" ry="0.767878" fill="#C4C4C4"/>
<ellipse cx="336.211" cy="2813.27" rx="0.452189" ry="0.383456" fill="#C4C4C4"/>
<ellipse cx="518.443" cy="2808.28" rx="0.904378" ry="0.767878" fill="#C4C4C4"/>
<ellipse cx="617.925" cy="2737.63" rx="0.904378" ry="0.767878" fill="#C4C4C4"/>
<ellipse cx="155.788" cy="2700.01" rx="0.904378" ry="0.767878" fill="#C4C4C4"/>
<ellipse cx="57.2109" cy="2855.12" rx="0.904378" ry="0.767878" fill="#C4C4C4"/>
<ellipse cx="92.4817" cy="2839.76" rx="0.904378" ry="0.767878" fill="#C4C4C4"/>
<ellipse cx="1431.41" cy="3271.69" rx="0.452189" ry="0.383456" fill="#C4C4C4"/>
<ellipse cx="1408.8" cy="3207.96" rx="0.452189" ry="0.383456" fill="#C4C4C4"/>
<ellipse cx="133.179" cy="2365.98" rx="0.904378" ry="0.767878" fill="#C4C4C4"/>
<ellipse cx="124.135" cy="2336.03" rx="0.904378" ry="0.767878" fill="#C4C4C4"/>
<ellipse cx="122.778" cy="2630.51" rx="0.452189" ry="0.383456" fill="#C4C4C4"/>
<ellipse cx="200.555" cy="2697.32" rx="0.452189" ry="0.383456" fill="#C4C4C4"/>
<ellipse cx="306.367" cy="2639.73" rx="0.452189" ry="0.383456" fill="#C4C4C4"/>
<ellipse cx="229.947" cy="2725.35" rx="0.904378" ry="0.767878" fill="#C4C4C4"/>
<ellipse cx="157.144" cy="2690.41" rx="0.452189" ry="0.383456" fill="#C4C4C4"/>
<ellipse cx="174.328" cy="2348.7" rx="0.452189" ry="0.383456" fill="#C4C4C4"/>
<ellipse cx="1101.31" cy="2548.35" rx="0.452189" ry="0.383456" fill="#C4C4C4"/>
<ellipse cx="1066.5" cy="2576.38" rx="0.904378" ry="0.767878" fill="#C4C4C4"/>
<ellipse cx="1057.9" cy="2541.44" rx="0.452189" ry="0.383456" fill="#C4C4C4"/>
<ellipse cx="997.312" cy="2423.19" rx="0.452189" ry="0.383456" fill="#C4C4C4"/>
<ellipse cx="911.396" cy="2421.65" rx="0.452189" ry="0.383456" fill="#C4C4C4"/>
<ellipse cx="902.352" cy="2391.7" rx="0.452189" ry="0.383456" fill="#C4C4C4"/>
<ellipse cx="898.734" cy="2416.27" rx="0.452189" ry="0.383456" fill="#C4C4C4"/>
<ellipse cx="817.34" cy="2497.67" rx="0.452189" ry="0.383456" fill="#C4C4C4"/>
<ellipse cx="819.149" cy="2558.33" rx="0.452189" ry="0.383456" fill="#C4C4C4"/>
<ellipse cx="967.015" cy="2603.25" rx="0.904378" ry="0.767878" fill="#C4C4C4"/>
<ellipse cx="957.971" cy="2573.31" rx="0.904378" ry="0.767878" fill="#C4C4C4"/>
<ellipse cx="1008.16" cy="2585.98" rx="0.452189" ry="0.383456" fill="#C4C4C4"/>
<ellipse cx="243.965" cy="2529.15" rx="0.452189" ry="0.383456" fill="#C4C4C4"/>
<ellipse cx="132.726" cy="2504.58" rx="0.452189" ry="0.383456" fill="#C4C4C4"/>
<ellipse cx="126.396" cy="2453.9" rx="0.452189" ry="0.383456" fill="#C4C4C4"/>
<ellipse cx="1342.78" cy="3330.82" rx="0.452189" ry="0.383456" fill="#C4C4C4"/>
<ellipse cx="577.68" cy="2460.04" rx="0.452189" ry="0.383456" fill="#C4C4C4"/>
<ellipse cx="744.086" cy="2677.35" rx="0.452189" ry="0.383456" fill="#C4C4C4"/>
<ellipse cx="821.862" cy="2744.16" rx="0.452189" ry="0.383456" fill="#C4C4C4"/>
<ellipse cx="1189.94" cy="2686.57" rx="0.452189" ry="0.383456" fill="#C4C4C4"/>
<ellipse cx="865.273" cy="2575.99" rx="0.452189" ry="0.383456" fill="#C4C4C4"/>
<ellipse cx="754.034" cy="2551.42" rx="0.452189" ry="0.383456" fill="#C4C4C4"/>
<ellipse cx="747.703" cy="2500.74" rx="0.452189" ry="0.383456" fill="#C4C4C4"/>
<ellipse cx="668.118" cy="2549.89" rx="0.452189" ry="0.383456" fill="#C4C4C4"/>
<ellipse cx="655.457" cy="2544.51" rx="0.452189" ry="0.383456" fill="#C4C4C4"/>
<ellipse cx="489.051" cy="2519.17" rx="0.452189" ry="0.383456" fill="#C4C4C4"/>
<ellipse cx="677.614" cy="2659.31" rx="0.904378" ry="0.767878" fill="#C4C4C4"/>
<ellipse cx="1376.7" cy="3127.71" rx="0.904378" ry="0.767878" fill="#C4C4C4"/>
<ellipse cx="63.5415" cy="2826.71" rx="0.904378" ry="0.767878" fill="#C4C4C4"/>
<ellipse cx="1173.67" cy="2811.73" rx="0.452189" ry="0.383456" fill="#C4C4C4"/>
<ellipse cx="1175.47" cy="2872.39" rx="0.452189" ry="0.383456" fill="#C4C4C4"/>
<ellipse cx="1289.88" cy="2873.55" rx="0.904378" ry="0.767878" fill="#C4C4C4"/>
<ellipse cx="1056.55" cy="2835.92" rx="0.904378" ry="0.767878" fill="#C4C4C4"/>
<ellipse cx="1091.82" cy="2820.56" rx="0.904378" ry="0.767878" fill="#C4C4C4"/>
<ellipse cx="529.296" cy="2197.81" rx="0.904378" ry="0.767878" fill="#C4C4C4"/>
<ellipse cx="520.252" cy="2167.87" rx="0.904378" ry="0.767878" fill="#C4C4C4"/>
<ellipse cx="650.935" cy="2364.06" rx="0.452189" ry="0.383456" fill="#C4C4C4"/>
<ellipse cx="578.585" cy="2150.59" rx="0.452189" ry="0.383456" fill="#C4C4C4"/>
<ellipse cx="580.394" cy="2283.43" rx="0.452189" ry="0.383456" fill="#C4C4C4"/>
<ellipse cx="570.445" cy="2111.43" rx="0.452189" ry="0.383456" fill="#C4C4C4"/>
<ellipse cx="701.128" cy="2191.67" rx="0.904378" ry="0.767878" fill="#C4C4C4"/>
<ellipse cx="772.574" cy="2309.16" rx="0.904378" ry="0.767878" fill="#C4C4C4"/>
<ellipse cx="1061.07" cy="2747.61" rx="0.904378" ry="0.767878" fill="#C4C4C4"/>
<ellipse cx="1301.18" cy="2984.5" rx="0.452189" ry="0.383456" fill="#C4C4C4"/>
<ellipse cx="1181.35" cy="2709.22" rx="0.904378" ry="0.767878" fill="#C4C4C4"/>
<ellipse cx="1264.1" cy="2930.75" rx="0.452189" ry="0.383456" fill="#C4C4C4"/>
<ellipse cx="1137.94" cy="2702.31" rx="0.904378" ry="0.767878" fill="#C4C4C4"/>
<ellipse cx="1349.57" cy="2749.15" rx="0.904378" ry="0.767878" fill="#C4C4C4"/>
<ellipse cx="357.917" cy="2047.69" rx="0.452189" ry="0.383456" fill="#C4C4C4"/>
<ellipse cx="276.07" cy="2056.52" rx="0.904378" ry="0.767878" fill="#C4C4C4"/>
<ellipse cx="2.94808" cy="2728.42" rx="0.904378" ry="0.767878" fill="#C4C4C4"/>
<ellipse cx="986.459" cy="2268.07" rx="0.452189" ry="0.383456" fill="#C4C4C4"/>
<ellipse cx="1016.3" cy="2132.93" rx="0.452189" ry="0.383456" fill="#C4C4C4"/>
<ellipse cx="910.039" cy="2125.63" rx="0.904378" ry="0.767878" fill="#C4C4C4"/>
<ellipse cx="944.406" cy="2200.12" rx="0.904378" ry="0.767878" fill="#C4C4C4"/>
<ellipse cx="1190.4" cy="2118.72" rx="0.904378" ry="0.767878" fill="#C4C4C4"/>
<ellipse cx="1161.46" cy="2105.67" rx="0.904378" ry="0.767878" fill="#C4C4C4"/>
<ellipse cx="1074.64" cy="2091.08" rx="0.904378" ry="0.767878" fill="#C4C4C4"/>
<ellipse cx="1180" cy="2281.13" rx="0.452189" ry="0.383456" fill="#C4C4C4"/>
<path d="M278.797 3217.19C274.986 3142.86 205.11 3115.74 137.776 3115.74H12V3474.32H1440V3115.74H1328.2C1250.7 3115.74 1199.88 3143.87 1187.18 3217.19C1171.93 3205.13 1133.82 3206.14 1112.22 3217.19C1095.7 3139.85 975.011 3148.89 964.847 3217.19C952.142 3212.17 930.545 3214.17 924.192 3228.24C887.349 3217.19 859.399 3224.22 831.448 3239.28C789.523 3228.24 746.327 3239.28 731.082 3267.41C692.968 3232.25 648.502 3228.24 601.495 3239.28C560.839 3220.68 546.865 3212.17 502.399 3217.19C484.612 3133.82 357.566 3155.92 355.025 3217.19C329.616 3208.15 300.395 3209.15 278.797 3217.19Z" fill="url(#paint0_radial_508_1098)"/>
<path d="M220.252 3138.61C212.953 3119.41 205.941 3112.01 185.522 3107.96H128.798V3323.48H1354.75V3107.96H1277.18C1252.91 3111.38 1240.94 3115.42 1232.04 3138.61C1196.15 3131.69 1178.78 3138.61 1161.42 3156.4C1116.27 3128.72 1054.92 3127.73 1019.03 3168.27C979.669 3107.96 876.638 3078.3 789.814 3138.61C742.351 3107.96 691.414 3113.89 654.37 3138.61C590.699 3086.21 493.457 3091.15 436.732 3168.27C397.372 3131.69 336.017 3128.72 294.341 3156.4C273.504 3138.61 248.035 3133.67 220.252 3138.61Z" fill="url(#paint1_radial_508_1098)"/>
<path d="M869.741 3185.39C856.088 3134.47 824.229 3130.34 782.617 3130.34H735.804V3324.38H1198.73V3130.34H1135.01C1082.76 3129.51 1057.97 3130.34 1044.64 3185.39C1013.76 3175.75 990.675 3196.4 987.424 3230.11C971.494 3218.76 942.886 3215.66 921.756 3230.11C921.756 3195.71 894.773 3179.88 869.741 3185.39Z" fill="url(#paint2_radial_508_1098)"/>
<path d="M911.784 3161.94C998.401 2975.59 1018.23 2781.04 1024.95 2344.26L1056.62 2344.34C1061.66 2767.36 1075.01 2971.44 1161.78 3162.64L911.784 3161.94Z" fill="url(#paint3_linear_508_1098)"/>
<path d="M1004.79 3161.2C1037.55 2882.33 1034.35 2691.03 1025.22 2344.26L1056.95 2344.35C1042.96 2702.14 1038 2895.22 1072.79 3161.39L1004.79 3161.2Z" fill="url(#paint4_linear_508_1098)"/>
<path d="M984.8 2328L984 2612" stroke="url(#paint5_linear_508_1098)"/>
<path d="M1011.2 2304.22L1010.76 2461.22" stroke="url(#paint6_linear_508_1098)"/>
<path d="M1082.18 2310.42L1081.87 2421.42" stroke="url(#paint7_linear_508_1098)"/>
<path d="M1099 2338L1099 2528" stroke="url(#paint8_linear_508_1098)"/>
<path d="M1081.48 2380.41C1081.48 2380.79 1081.3 2381.2 1080.82 2381.67C1080.34 2382.13 1079.61 2382.61 1078.62 2383.07C1076.65 2384 1073.76 2384.84 1070.16 2385.55C1062.96 2386.97 1052.99 2387.83 1041.96 2387.8C1030.94 2387.77 1020.98 2386.85 1013.78 2385.39C1010.18 2384.66 1007.3 2383.8 1005.33 2382.86C1004.35 2382.39 1003.62 2381.92 1003.14 2381.45C1002.67 2380.98 1002.48 2380.56 1002.49 2380.19C1002.49 2379.82 1002.67 2379.4 1003.15 2378.94C1003.63 2378.47 1004.36 2378 1005.35 2377.54C1007.32 2376.61 1010.21 2375.77 1013.81 2375.06C1021.02 2373.64 1030.98 2372.77 1042.01 2372.8C1053.03 2372.83 1062.99 2373.76 1070.19 2375.22C1073.79 2375.95 1076.67 2376.81 1078.64 2377.74C1079.62 2378.21 1080.35 2378.69 1080.83 2379.16C1081.3 2379.63 1081.49 2380.04 1081.48 2380.41Z" stroke="url(#paint9_linear_508_1098)"/>
<path d="M1100.42 2404.47C1100.42 2405.12 1100.09 2405.81 1099.36 2406.53C1098.63 2407.25 1097.52 2407.98 1096.05 2408.68C1093.12 2410.08 1088.84 2411.35 1083.51 2412.42C1072.87 2414.55 1058.15 2415.85 1041.88 2415.8C1025.62 2415.76 1010.9 2414.37 1000.28 2412.18C994.956 2411.08 990.686 2409.79 987.759 2408.37C986.294 2407.66 985.192 2406.93 984.463 2406.21C983.735 2405.48 983.416 2404.79 983.417 2404.14C983.419 2403.49 983.743 2402.8 984.474 2402.08C985.207 2401.35 986.314 2400.63 987.782 2399.93C990.718 2398.53 994.995 2397.26 1000.32 2396.19C1010.96 2394.06 1025.68 2392.76 1041.95 2392.8C1058.22 2392.85 1072.93 2394.23 1083.56 2396.43C1088.88 2397.52 1093.15 2398.82 1096.08 2400.24C1097.54 2400.95 1098.64 2401.67 1099.37 2402.4C1100.1 2403.13 1100.42 2403.82 1100.42 2404.47Z" stroke="url(#paint10_linear_508_1098)"/>
<path d="M1128.31 2443.55C1128.3 2444.61 1127.77 2445.7 1126.65 2446.82C1125.52 2447.93 1123.83 2449.03 1121.62 2450.08C1117.19 2452.2 1110.75 2454.11 1102.75 2455.71C1086.77 2458.92 1064.67 2460.87 1040.26 2460.8C1015.84 2460.73 993.759 2458.66 977.795 2455.36C969.808 2453.71 963.38 2451.77 958.962 2449.63C956.751 2448.56 955.071 2447.45 953.95 2446.33C952.83 2445.21 952.306 2444.12 952.309 2443.05C952.312 2441.99 952.843 2440.9 953.968 2439.78C955.095 2438.67 956.782 2437.57 958.999 2436.51C963.429 2434.4 969.868 2432.49 977.864 2430.89C993.847 2427.68 1015.94 2425.73 1040.36 2425.8C1064.77 2425.87 1086.86 2427.94 1102.82 2431.24C1110.81 2432.89 1117.24 2434.83 1121.66 2436.97C1123.87 2438.04 1125.55 2439.15 1126.67 2440.27C1127.79 2441.39 1128.31 2442.48 1128.31 2443.55Z" stroke="url(#paint11_linear_508_1098)"/>
<path d="M1175.08 2525.68C1175.07 2527.43 1174.2 2529.2 1172.42 2530.96C1170.63 2532.72 1167.98 2534.44 1164.52 2536.1C1157.61 2539.4 1147.58 2542.38 1135.15 2544.88C1110.29 2549.86 1075.95 2552.9 1038 2552.79C1000.05 2552.69 965.722 2549.46 940.896 2544.33C928.478 2541.76 918.465 2538.73 911.57 2535.39C908.122 2533.71 905.48 2531.98 903.709 2530.2C901.938 2528.43 901.073 2526.66 901.078 2524.91C901.082 2523.15 901.958 2521.39 903.739 2519.63C905.52 2517.86 908.172 2516.14 911.629 2514.49C918.542 2511.18 928.573 2508.21 941.004 2505.71C965.859 2500.72 1000.21 2497.69 1038.15 2497.79C1076.1 2497.9 1110.43 2501.13 1135.26 2506.26C1147.68 2508.82 1157.69 2511.86 1164.58 2515.2C1168.03 2516.87 1170.67 2518.61 1172.45 2520.38C1174.22 2522.15 1175.08 2523.92 1175.08 2525.68Z" stroke="url(#paint12_linear_508_1098)"/>
<path d="M1312.65 2675.57C1312.64 2679.22 1310.82 2682.84 1307.23 2686.38C1303.65 2689.93 1298.34 2693.37 1291.46 2696.66C1277.71 2703.24 1257.79 2709.15 1233.13 2714.1C1183.83 2723.99 1115.73 2730.01 1040.5 2729.8C965.275 2729.59 897.203 2723.19 847.96 2713.01C823.335 2707.93 803.444 2701.9 789.728 2695.25C782.869 2691.92 777.58 2688.45 774.015 2684.88C770.451 2681.31 768.646 2677.69 768.656 2674.04C768.667 2670.38 770.492 2666.77 774.076 2663.22C777.661 2659.67 782.969 2656.23 789.847 2652.94C803.601 2646.37 823.525 2640.45 848.178 2635.5C897.478 2625.61 965.585 2619.59 1040.81 2619.8C1116.04 2620.01 1184.11 2626.42 1233.35 2636.59C1257.98 2641.68 1277.87 2647.7 1291.58 2654.35C1298.44 2657.68 1303.73 2661.15 1307.3 2664.72C1310.86 2668.29 1312.66 2671.91 1312.65 2675.57Z" stroke="url(#paint13_linear_508_1098)"/>
<path d="M1060.57 2351.86C1060.57 2351.89 1060.55 2352 1060.33 2352.18C1060.12 2352.36 1059.78 2352.55 1059.3 2352.75C1058.34 2353.15 1056.91 2353.51 1055.12 2353.82C1051.53 2354.44 1046.56 2354.82 1041.06 2354.8C1035.55 2354.79 1030.59 2354.38 1027 2353.74C1025.21 2353.42 1023.79 2353.05 1022.83 2352.65C1022.34 2352.45 1022 2352.25 1021.8 2352.07C1021.58 2351.89 1021.57 2351.78 1021.57 2351.75C1021.57 2351.71 1021.58 2351.6 1021.8 2351.42C1022.01 2351.24 1022.35 2351.05 1022.83 2350.85C1023.79 2350.45 1025.22 2350.09 1027.01 2349.78C1030.6 2349.16 1035.57 2348.79 1041.07 2348.8C1046.58 2348.82 1051.55 2349.22 1055.13 2349.86C1056.92 2350.18 1058.34 2350.55 1059.3 2350.95C1059.79 2351.15 1060.13 2351.35 1060.33 2351.53C1060.55 2351.71 1060.57 2351.82 1060.57 2351.86Z" stroke="url(#paint14_linear_508_1098)"/>
<path d="M1062.56 2354.36C1062.56 2354.44 1062.52 2354.58 1062.28 2354.79C1062.04 2355 1061.66 2355.23 1061.13 2355.46C1060.07 2355.91 1058.5 2356.33 1056.52 2356.68C1052.57 2357.39 1047.1 2357.82 1041.05 2357.8C1034.99 2357.78 1029.53 2357.32 1025.59 2356.59C1023.61 2356.23 1022.04 2355.8 1020.98 2355.34C1020.45 2355.11 1020.07 2354.88 1019.84 2354.67C1019.6 2354.46 1019.56 2354.32 1019.56 2354.24C1019.56 2354.16 1019.6 2354.02 1019.84 2353.81C1020.08 2353.6 1020.45 2353.37 1020.99 2353.15C1022.05 2352.69 1023.62 2352.27 1025.6 2351.92C1029.54 2351.21 1035.01 2350.78 1041.07 2350.8C1047.12 2350.82 1052.59 2351.28 1056.53 2352.01C1058.51 2352.37 1060.07 2352.8 1061.14 2353.26C1061.67 2353.49 1062.05 2353.72 1062.28 2353.93C1062.52 2354.14 1062.56 2354.29 1062.56 2354.36Z" stroke="url(#paint15_linear_508_1098)"/>
<path d="M1065.55 2357.87C1065.55 2357.98 1065.49 2358.16 1065.21 2358.4C1064.93 2358.64 1064.49 2358.9 1063.88 2359.16C1062.67 2359.67 1060.88 2360.14 1058.63 2360.54C1054.14 2361.33 1047.92 2361.82 1041.04 2361.8C1034.15 2361.78 1027.94 2361.26 1023.45 2360.44C1021.2 2360.03 1019.42 2359.55 1018.2 2359.03C1017.6 2358.77 1017.16 2358.51 1016.88 2358.26C1016.61 2358.02 1016.55 2357.84 1016.55 2357.73C1016.55 2357.62 1016.61 2357.45 1016.89 2357.2C1017.16 2356.96 1017.6 2356.7 1018.21 2356.44C1019.43 2355.93 1021.22 2355.46 1023.47 2355.06C1027.96 2354.27 1034.18 2353.78 1041.06 2353.8C1047.94 2353.82 1054.16 2354.34 1058.64 2355.16C1060.89 2355.57 1062.68 2356.05 1063.89 2356.57C1064.5 2356.83 1064.94 2357.09 1065.21 2357.34C1065.49 2357.58 1065.55 2357.76 1065.55 2357.87Z" stroke="url(#paint16_linear_508_1098)"/>
<path d="M1070.53 2365.38C1070.53 2365.51 1070.45 2365.72 1070.1 2366C1069.76 2366.28 1069.22 2366.57 1068.48 2366.86C1067.01 2367.43 1064.85 2367.96 1062.15 2368.4C1056.75 2369.29 1049.28 2369.82 1041.01 2369.8C1032.75 2369.78 1025.28 2369.2 1019.89 2368.28C1017.19 2367.83 1015.03 2367.29 1013.56 2366.7C1012.83 2366.41 1012.29 2366.12 1011.95 2365.84C1011.6 2365.55 1011.53 2365.34 1011.53 2365.22C1011.53 2365.09 1011.6 2364.88 1011.95 2364.6C1012.3 2364.32 1012.83 2364.03 1013.57 2363.74C1015.04 2363.17 1017.2 2362.64 1019.9 2362.2C1025.3 2361.32 1032.77 2360.78 1041.04 2360.8C1049.3 2360.82 1056.77 2361.4 1062.17 2362.32C1064.87 2362.78 1067.02 2363.31 1068.49 2363.9C1069.23 2364.19 1069.76 2364.48 1070.1 2364.76C1070.45 2365.05 1070.53 2365.26 1070.53 2365.38Z" stroke="url(#paint17_linear_508_1098)"/>
<path d="M1022.78 2345.46L1018.09 2336.46C1017.74 2335.8 1018.22 2335 1018.97 2335H1063.67C1064.42 2335 1064.91 2335.8 1064.56 2336.46L1059.86 2345.46C1059.69 2345.79 1059.35 2346 1058.98 2346H1023.67C1023.3 2346 1022.95 2345.79 1022.78 2345.46Z" fill="#EDEFF0"/>
<path d="M989.252 2350C986.252 2347.43 989.252 2313 1017.25 2294.5H1020.25V2337H1012.75C1007.25 2337 992.252 2352.57 989.252 2350Z" fill="url(#paint18_linear_508_1098)"/>
<path d="M1093.25 2350C1096.25 2347.43 1093.25 2313 1065.25 2294.5H1062.25V2337H1069.75C1075.25 2337 1090.25 2352.57 1093.25 2350Z" fill="url(#paint19_linear_508_1098)"/>
<path d="M1018.25 2229V2337H1064.25V2229C1064.25 2217 1049.75 2182 1041.25 2182C1032.25 2182 1018.25 2217 1018.25 2229Z" fill="url(#paint20_linear_508_1098)"/>
<path d="M1027.25 2218.5C1038.15 2214.56 1044.19 2214.61 1054.75 2218.5" stroke="url(#paint21_linear_508_1098)" stroke-width="2" stroke-linecap="round"/>
<path d="M1034.75 2350C1034.75 2355 1037.75 2358.5 1041.25 2358.5C1044.25 2358.5 1047.35 2355.5 1047.25 2350C1046.8 2322.97 1044.25 2294 1041.25 2294C1038.25 2294 1036.57 2312.36 1034.75 2350Z" fill="url(#paint22_linear_508_1098)"/>
</g>
<g clip-path="url(#clip1_508_1098)">
<rect width="1440" height="1241" transform="translate(0 805)" fill="url(#paint23_linear_508_1098)"/>
<g opacity="0.4">
<path d="M-38.3128 1539C12.4321 1528.62 45.0235 1479.69 34.482 1429.72C23.9406 1379.75 -25.7418 1347.66 -76.4868 1358.04C-127.232 1368.42 -159.823 1417.34 -149.282 1467.32C-138.74 1517.29 -89.0578 1549.38 -38.3128 1539Z" stroke="url(#paint24_linear_508_1098)" stroke-miterlimit="10"/>
<path d="M-129.973 1557.47C-68.8893 1596.93 13.1119 1580.15 53.1822 1520C93.2525 1459.85 76.2181 1379.1 15.1348 1339.64C-45.9485 1300.18 -127.95 1316.95 -168.02 1377.1C-208.09 1437.26 -191.056 1518.01 -129.973 1557.47Z" stroke="url(#paint25_linear_508_1098)" stroke-miterlimit="10"/>
<path d="M-20.4891 1623.49C77.6424 1603.42 140.668 1508.81 120.283 1412.17C99.8977 1315.54 3.82094 1253.47 -94.3105 1273.54C-192.442 1293.62 -255.468 1388.23 -235.082 1484.87C-214.697 1581.5 -118.62 1643.57 -20.4891 1623.49Z" stroke="url(#paint26_linear_508_1098)" stroke-miterlimit="10"/>
<path d="M-10.8963 1668.97C112.739 1643.68 192.144 1524.48 166.461 1402.72C140.778 1280.97 19.7318 1202.78 -103.903 1228.07C-227.538 1253.36 -306.944 1372.56 -281.261 1494.31C-255.578 1616.06 -134.531 1694.26 -10.8963 1668.97Z" stroke="url(#paint27_linear_508_1098)" stroke-miterlimit="10"/>
<path d="M-221.636 1695.07C-83.3808 1784.38 102.22 1746.42 192.915 1610.27C283.609 1474.12 245.054 1291.35 106.798 1202.03C-31.457 1112.72 -217.058 1150.69 -307.752 1286.84C-398.447 1422.99 -359.892 1605.76 -221.636 1695.07Z" stroke="url(#paint28_linear_508_1098)" stroke-miterlimit="10"/>
<path d="M-279.817 1782.41C-92.5787 1903.37 158.779 1851.95 281.607 1667.56C404.434 1483.18 352.218 1235.65 164.98 1114.69C-22.2586 993.739 -273.617 1045.16 -396.444 1229.54C-519.271 1413.93 -467.056 1661.45 -279.817 1782.41Z" stroke="url(#paint29_linear_508_1098)" stroke-miterlimit="10"/>
<path d="M-327.938 1854.65C-100.187 2001.77 205.558 1939.23 354.962 1714.95C504.366 1490.67 440.852 1189.58 213.101 1042.46C-14.6511 895.33 -320.396 957.875 -469.8 1182.16C-619.203 1406.44 -555.69 1707.52 -327.938 1854.65Z" stroke="url(#paint30_linear_508_1098)" stroke-miterlimit="10"/>
<path d="M-359.664 1902.27C-105.202 2066.65 236.4 1996.77 403.325 1746.19C570.25 1495.61 499.288 1159.21 244.826 994.832C-9.63536 830.45 -351.237 900.331 -518.162 1150.91C-685.087 1401.5 -614.125 1737.89 -359.664 1902.27Z" stroke="url(#paint31_linear_508_1098)" stroke-miterlimit="10"/>
<path d="M-381.357 1934.66C-108.7 2110.8 257.327 2035.92 436.188 1767.42C615.05 1498.92 539.013 1138.47 266.357 962.336C-6.29984 786.201 -372.327 861.078 -551.188 1129.58C-730.049 1398.08 -654.013 1758.53 -381.357 1934.66Z" stroke="url(#paint32_linear_508_1098)" stroke-miterlimit="10"/>
</g>
<ellipse cx="45.5995" cy="2040.88" rx="0.464243" ry="0.383456" fill="#C4C4C4"/>
<ellipse cx="76.2234" cy="1905.74" rx="0.464243" ry="0.383456" fill="#C4C4C4"/>
<ellipse cx="104.063" cy="1752.93" rx="0.464243" ry="0.383456" fill="#C4C4C4"/>
<ellipse cx="211.711" cy="1932.61" rx="0.464243" ry="0.383456" fill="#C4C4C4"/>
<ellipse cx="2.44753" cy="1972.93" rx="0.927995" ry="0.767878" fill="#C4C4C4"/>
<ellipse cx="263.678" cy="1831.25" rx="0.464243" ry="0.383456" fill="#C4C4C4"/>
<ellipse cx="53.0236" cy="1842" rx="0.464243" ry="0.383456" fill="#C4C4C4"/>
<ellipse cx="214.495" cy="1904.2" rx="0.464243" ry="0.383456" fill="#C4C4C4"/>
<ellipse cx="105.919" cy="1813.59" rx="0.464243" ry="0.383456" fill="#C4C4C4"/>
<ellipse cx="129.119" cy="1869.65" rx="0.464243" ry="0.383456" fill="#C4C4C4"/>
<ellipse cx="1022.31" cy="1938.37" rx="0.927995" ry="0.767878" fill="#C4C4C4"/>
<ellipse cx="1013.03" cy="1908.42" rx="0.927995" ry="0.767878" fill="#C4C4C4"/>
<ellipse cx="223.31" cy="1814.74" rx="0.927995" ry="0.767878" fill="#C4C4C4"/>
<ellipse cx="654.828" cy="1652.72" rx="0.927995" ry="0.767878" fill="#C4C4C4"/>
<ellipse cx="254.862" cy="1891.53" rx="0.927995" ry="0.767878" fill="#C4C4C4"/>
<ellipse cx="225.166" cy="1878.48" rx="0.927995" ry="0.767878" fill="#C4C4C4"/>
<ellipse cx="747.628" cy="1622.77" rx="0.927995" ry="0.767878" fill="#C4C4C4"/>
<ellipse cx="136.079" cy="1863.89" rx="0.927995" ry="0.767878" fill="#C4C4C4"/>
<ellipse cx="581.516" cy="1780.96" rx="0.927995" ry="0.767878" fill="#C4C4C4"/>
<ellipse cx="669.212" cy="1629.3" rx="0.464243" ry="0.383456" fill="#C4C4C4"/>
<ellipse cx="765.724" cy="1660.78" rx="0.464243" ry="0.383456" fill="#C4C4C4"/>
<ellipse cx="1117.43" cy="1654.64" rx="0.464243" ry="0.383456" fill="#C4C4C4"/>
<ellipse cx="115.199" cy="1994.04" rx="0.464243" ry="0.383456" fill="#C4C4C4"/>
<ellipse cx="1072.89" cy="1891.15" rx="0.464243" ry="0.383456" fill="#C4C4C4"/>
<ellipse cx="555.069" cy="1713" rx="0.464243" ry="0.383456" fill="#C4C4C4"/>
<ellipse cx="1074.75" cy="2023.99" rx="0.464243" ry="0.383456" fill="#C4C4C4"/>
<ellipse cx="602.397" cy="1683.82" rx="0.464243" ry="0.383456" fill="#C4C4C4"/>
<ellipse cx="595.901" cy="1633.14" rx="0.464243" ry="0.383456" fill="#C4C4C4"/>
<ellipse cx="320.75" cy="1942.98" rx="0.927995" ry="0.767878" fill="#C4C4C4"/>
<ellipse cx="214.495" cy="2026.29" rx="0.464243" ry="0.383456" fill="#C4C4C4"/>
<ellipse cx="566.205" cy="1636.98" rx="0.464243" ry="0.383456" fill="#C4C4C4"/>
<ellipse cx="536.509" cy="1623.92" rx="0.464243" ry="0.383456" fill="#C4C4C4"/>
<ellipse cx="338.846" cy="1654.64" rx="0.464243" ry="0.383456" fill="#C4C4C4"/>
<ellipse cx="329.566" cy="1624.69" rx="0.464243" ry="0.383456" fill="#C4C4C4"/>
<ellipse cx="244.19" cy="1639.28" rx="0.464243" ry="0.383456" fill="#C4C4C4"/>
<ellipse cx="325.854" cy="1649.26" rx="0.464243" ry="0.383456" fill="#C4C4C4"/>
<ellipse cx="1249.67" cy="1631.22" rx="0.927995" ry="0.767878" fill="#C4C4C4"/>
<ellipse cx="1064.54" cy="1851.98" rx="0.464243" ry="0.383456" fill="#C4C4C4"/>
<ellipse cx="154.639" cy="1046.87" rx="0.927995" ry="0.767878" fill="#C4C4C4"/>
<ellipse cx="145.359" cy="1016.92" rx="0.927995" ry="0.767878" fill="#C4C4C4"/>
<ellipse cx="91.0712" cy="1203.9" rx="0.464243" ry="0.383456" fill="#C4C4C4"/>
<ellipse cx="199.647" cy="1233.07" rx="0.464243" ry="0.383456" fill="#C4C4C4"/>
<ellipse cx="279.454" cy="1213.11" rx="0.464243" ry="0.383456" fill="#C4C4C4"/>
<ellipse cx="229.806" cy="1261.1" rx="0.927995" ry="0.767878" fill="#C4C4C4"/>
<ellipse cx="155.103" cy="1226.16" rx="0.464243" ry="0.383456" fill="#C4C4C4"/>
<ellipse cx="205.215" cy="999.64" rx="0.464243" ry="0.383456" fill="#C4C4C4"/>
<ellipse cx="207.071" cy="1132.48" rx="0.464243" ry="0.383456" fill="#C4C4C4"/>
<ellipse cx="92.9274" cy="1107.91" rx="0.464243" ry="0.383456" fill="#C4C4C4"/>
<ellipse cx="86.4313" cy="1057.23" rx="0.464243" ry="0.383456" fill="#C4C4C4"/>
<ellipse cx="86.4313" cy="958.942" rx="0.464243" ry="0.383456" fill="#C4C4C4"/>
<ellipse cx="196.863" cy="960.478" rx="0.464243" ry="0.383456" fill="#C4C4C4"/>
<ellipse cx="1251.07" cy="1796.7" rx="0.464243" ry="0.383456" fill="#C4C4C4"/>
<ellipse cx="1130.89" cy="1709.54" rx="0.927995" ry="0.767878" fill="#C4C4C4"/>
<ellipse cx="263.678" cy="1763.68" rx="0.464243" ry="0.383456" fill="#C4C4C4"/>
<ellipse cx="300.334" cy="1748.71" rx="0.927995" ry="0.767878" fill="#C4C4C4"/>
<ellipse cx="270.174" cy="1735.27" rx="0.464243" ry="0.383456" fill="#C4C4C4"/>
<ellipse cx="457.165" cy="1730.28" rx="0.927995" ry="0.767878" fill="#C4C4C4"/>
<ellipse cx="559.245" cy="1659.63" rx="0.927995" ry="0.767878" fill="#C4C4C4"/>
<ellipse cx="85.0391" cy="1622.01" rx="0.927995" ry="0.767878" fill="#C4C4C4"/>
<ellipse cx="1423.67" cy="1949.51" rx="0.464243" ry="0.383456" fill="#C4C4C4"/>
<ellipse cx="20.0796" cy="1761.76" rx="0.927995" ry="0.767878" fill="#C4C4C4"/>
<ellipse cx="1421.82" cy="2040.88" rx="0.464243" ry="0.383456" fill="#C4C4C4"/>
<ellipse cx="61.8394" cy="1287.98" rx="0.927995" ry="0.767878" fill="#C4C4C4"/>
<ellipse cx="52.5592" cy="1258.03" rx="0.927995" ry="0.767878" fill="#C4C4C4"/>
<ellipse cx="51.1676" cy="1552.51" rx="0.464243" ry="0.383456" fill="#C4C4C4"/>
<ellipse cx="130.975" cy="1619.32" rx="0.464243" ry="0.383456" fill="#C4C4C4"/>
<ellipse cx="239.551" cy="1561.73" rx="0.464243" ry="0.383456" fill="#C4C4C4"/>
<ellipse cx="161.135" cy="1647.35" rx="0.927995" ry="0.767878" fill="#C4C4C4"/>
<ellipse cx="86.4313" cy="1612.41" rx="0.464243" ry="0.383456" fill="#C4C4C4"/>
<ellipse cx="104.063" cy="1270.7" rx="0.464243" ry="0.383456" fill="#C4C4C4"/>
<ellipse cx="1055.26" cy="1470.35" rx="0.464243" ry="0.383456" fill="#C4C4C4"/>
<ellipse cx="1019.53" cy="1498.38" rx="0.927995" ry="0.767878" fill="#C4C4C4"/>
<ellipse cx="1010.71" cy="1463.44" rx="0.464243" ry="0.383456" fill="#C4C4C4"/>
<ellipse cx="948.539" cy="1345.19" rx="0.464243" ry="0.383456" fill="#C4C4C4"/>
<ellipse cx="860.379" cy="1343.65" rx="0.464243" ry="0.383456" fill="#C4C4C4"/>
<ellipse cx="851.099" cy="1313.7" rx="0.464243" ry="0.383456" fill="#C4C4C4"/>
<ellipse cx="847.387" cy="1338.27" rx="0.464243" ry="0.383456" fill="#C4C4C4"/>
<ellipse cx="763.868" cy="1419.67" rx="0.464243" ry="0.383456" fill="#C4C4C4"/>
<ellipse cx="765.724" cy="1480.33" rx="0.464243" ry="0.383456" fill="#C4C4C4"/>
<ellipse cx="917.451" cy="1525.25" rx="0.927995" ry="0.767878" fill="#C4C4C4"/>
<ellipse cx="908.171" cy="1495.31" rx="0.927995" ry="0.767878" fill="#C4C4C4"/>
<ellipse cx="959.675" cy="1507.98" rx="0.464243" ry="0.383456" fill="#C4C4C4"/>
<ellipse cx="175.519" cy="1451.15" rx="0.464243" ry="0.383456" fill="#C4C4C4"/>
<ellipse cx="61.3756" cy="1426.58" rx="0.464243" ry="0.383456" fill="#C4C4C4"/>
<ellipse cx="54.8794" cy="1375.9" rx="0.464243" ry="0.383456" fill="#C4C4C4"/>
<ellipse cx="517.949" cy="1382.04" rx="0.464243" ry="0.383456" fill="#C4C4C4"/>
<ellipse cx="688.7" cy="1599.35" rx="0.464243" ry="0.383456" fill="#C4C4C4"/>
<ellipse cx="768.508" cy="1666.16" rx="0.464243" ry="0.383456" fill="#C4C4C4"/>
<ellipse cx="1146.2" cy="1608.57" rx="0.464243" ry="0.383456" fill="#C4C4C4"/>
<ellipse cx="813.052" cy="1497.99" rx="0.464243" ry="0.383456" fill="#C4C4C4"/>
<ellipse cx="698.908" cy="1473.42" rx="0.464243" ry="0.383456" fill="#C4C4C4"/>
<ellipse cx="692.412" cy="1422.74" rx="0.464243" ry="0.383456" fill="#C4C4C4"/>
<ellipse cx="610.749" cy="1471.89" rx="0.464243" ry="0.383456" fill="#C4C4C4"/>
<ellipse cx="597.756" cy="1466.51" rx="0.464243" ry="0.383456" fill="#C4C4C4"/>
<ellipse cx="427.006" cy="1441.17" rx="0.464243" ry="0.383456" fill="#C4C4C4"/>
<ellipse cx="620.492" cy="1581.31" rx="0.927995" ry="0.767878" fill="#C4C4C4"/>
<ellipse cx="1129.5" cy="1733.73" rx="0.464243" ry="0.383456" fill="#C4C4C4"/>
<ellipse cx="1131.35" cy="1794.39" rx="0.464243" ry="0.383456" fill="#C4C4C4"/>
<ellipse cx="1248.74" cy="1795.55" rx="0.927995" ry="0.767878" fill="#C4C4C4"/>
<ellipse cx="21.9354" cy="876.397" rx="0.927995" ry="0.767878" fill="#C4C4C4"/>
<ellipse cx="1009.32" cy="1757.92" rx="0.927995" ry="0.767878" fill="#C4C4C4"/>
<ellipse cx="1045.51" cy="1742.56" rx="0.927995" ry="0.767878" fill="#C4C4C4"/>
<ellipse cx="468.301" cy="1119.81" rx="0.927995" ry="0.767878" fill="#C4C4C4"/>
<ellipse cx="459.021" cy="1089.87" rx="0.927995" ry="0.767878" fill="#C4C4C4"/>
<ellipse cx="593.117" cy="1286.06" rx="0.464243" ry="0.383456" fill="#C4C4C4"/>
<ellipse cx="518.877" cy="1072.59" rx="0.464243" ry="0.383456" fill="#C4C4C4"/>
<ellipse cx="520.733" cy="1205.43" rx="0.464243" ry="0.383456" fill="#C4C4C4"/>
<ellipse cx="510.525" cy="1033.43" rx="0.464243" ry="0.383456" fill="#C4C4C4"/>
<ellipse cx="644.62" cy="1113.67" rx="0.927995" ry="0.767878" fill="#C4C4C4"/>
<ellipse cx="717.932" cy="1231.16" rx="0.927995" ry="0.767878" fill="#C4C4C4"/>
<ellipse cx="455.309" cy="939.363" rx="0.927995" ry="0.767878" fill="#C4C4C4"/>
<ellipse cx="491.501" cy="924.005" rx="0.927995" ry="0.767878" fill="#C4C4C4"/>
<ellipse cx="1013.96" cy="1669.61" rx="0.927995" ry="0.767878" fill="#C4C4C4"/>
<ellipse cx="1260.35" cy="1906.5" rx="0.464243" ry="0.383456" fill="#C4C4C4"/>
<ellipse cx="1137.39" cy="1631.22" rx="0.927995" ry="0.767878" fill="#C4C4C4"/>
<ellipse cx="1436.66" cy="1908.04" rx="0.464243" ry="0.383456" fill="#C4C4C4"/>
<ellipse cx="1222.3" cy="1852.75" rx="0.464243" ry="0.383456" fill="#C4C4C4"/>
<ellipse cx="1092.84" cy="1624.31" rx="0.927995" ry="0.767878" fill="#C4C4C4"/>
<ellipse cx="1309.99" cy="1671.15" rx="0.927995" ry="0.767878" fill="#C4C4C4"/>
<ellipse cx="470.621" cy="844.528" rx="0.464243" ry="0.383456" fill="#C4C4C4"/>
<ellipse cx="388.958" cy="893.673" rx="0.464243" ry="0.383456" fill="#C4C4C4"/>
<ellipse cx="294.302" cy="878.316" rx="0.464243" ry="0.383456" fill="#C4C4C4"/>
<ellipse cx="375.966" cy="888.298" rx="0.464243" ry="0.383456" fill="#C4C4C4"/>
<ellipse cx="292.446" cy="969.693" rx="0.464243" ry="0.383456" fill="#C4C4C4"/>
<ellipse cx="208.462" cy="978.525" rx="0.927995" ry="0.767878" fill="#C4C4C4"/>
<ellipse cx="307.294" cy="836.85" rx="0.464243" ry="0.383456" fill="#C4C4C4"/>
<ellipse cx="937.403" cy="1190.07" rx="0.464243" ry="0.383456" fill="#C4C4C4"/>
<ellipse cx="968.027" cy="1054.93" rx="0.464243" ry="0.383456" fill="#C4C4C4"/>
<ellipse cx="858.987" cy="1047.63" rx="0.927995" ry="0.767878" fill="#C4C4C4"/>
<ellipse cx="894.251" cy="1122.12" rx="0.927995" ry="0.767878" fill="#C4C4C4"/>
<ellipse cx="1146.67" cy="1040.72" rx="0.927995" ry="0.767878" fill="#C4C4C4"/>
<ellipse cx="1116.97" cy="1027.67" rx="0.927995" ry="0.767878" fill="#C4C4C4"/>
<ellipse cx="1027.88" cy="1013.08" rx="0.927995" ry="0.767878" fill="#C4C4C4"/>
<ellipse cx="1135.99" cy="1203.13" rx="0.464243" ry="0.383456" fill="#C4C4C4"/>
<ellipse cx="911.883" cy="910.95" rx="0.927995" ry="0.767878" fill="#C4C4C4"/>
</g>
<path fill-rule="evenodd" clip-rule="evenodd" d="M0 0H1440V816H0L0 0Z" fill="#040327"/>
<defs>
<radialGradient id="paint0_radial_508_1098" cx="0" cy="0" r="1" gradientUnits="userSpaceOnUse" gradientTransform="translate(726 3185.05) rotate(90) scale(179.789 716)">
<stop stop-color="#DB684C"/>
<stop offset="1" stop-color="#FF8F70" stop-opacity="0"/>
</radialGradient>
<radialGradient id="paint1_radial_508_1098" cx="0" cy="0" r="1" gradientUnits="userSpaceOnUse" gradientTransform="translate(728.459 3159.36) rotate(90) scale(164.111 561.147)">
<stop stop-color="#F0A795"/>
<stop offset="1" stop-color="#FF8C70" stop-opacity="0"/>
</radialGradient>
<radialGradient id="paint2_radial_508_1098" cx="0" cy="0" r="1" gradientUnits="userSpaceOnUse" gradientTransform="translate(958.166 3187.99) rotate(84.6022) scale(96.7631 179.675)">
<stop stop-color="#FF8C70"/>
<stop offset="1" stop-color="#FF8C70" stop-opacity="0"/>
</radialGradient>
<linearGradient id="paint3_linear_508_1098" x1="1039.09" y1="2344.3" x2="1037.83" y2="3084.62" gradientUnits="userSpaceOnUse">
<stop stop-color="#7D3220" stop-opacity="0.52"/>
<stop offset="1" stop-color="#FFC0B0" stop-opacity="0"/>
</linearGradient>
<linearGradient id="paint4_linear_508_1098" x1="1041.09" y1="2344.3" x2="1038.79" y2="3161.3" gradientUnits="userSpaceOnUse">
<stop offset="0.119792" stop-color="#E48771" stop-opacity="0.31"/>
<stop offset="0.875" stop-color="#FF8C70" stop-opacity="0"/>
</linearGradient>
<linearGradient id="paint5_linear_508_1098" x1="985.3" y1="2328" x2="984.5" y2="2612" gradientUnits="userSpaceOnUse">
<stop stop-color="#FAFAFA" stop-opacity="0"/>
<stop offset="0.494792" stop-color="#FAFAFA"/>
<stop offset="1" stop-color="#FAFAFA" stop-opacity="0"/>
</linearGradient>
<linearGradient id="paint6_linear_508_1098" x1="1011.7" y1="2304.22" x2="1011.26" y2="2461.22" gradientUnits="userSpaceOnUse">
<stop stop-color="#FAFAFA" stop-opacity="0"/>
<stop offset="0.494792" stop-color="#FAFAFA"/>
<stop offset="1" stop-color="#FAFAFA" stop-opacity="0"/>
</linearGradient>
<linearGradient id="paint7_linear_508_1098" x1="1082.68" y1="2310.42" x2="1082.37" y2="2421.42" gradientUnits="userSpaceOnUse">
<stop stop-color="#FAFAFA" stop-opacity="0"/>
<stop offset="0.494792" stop-color="#FAFAFA"/>
<stop offset="1" stop-color="#FAFAFA" stop-opacity="0"/>
</linearGradient>
<linearGradient id="paint8_linear_508_1098" x1="1099.5" y1="2338" x2="1099.5" y2="2528" gradientUnits="userSpaceOnUse">
<stop stop-color="#FAFAFA" stop-opacity="0"/>
<stop offset="0.494792" stop-color="#FAFAFA"/>
<stop offset="1" stop-color="#FAFAFA" stop-opacity="0"/>
</linearGradient>
<linearGradient id="paint9_linear_508_1098" x1="1041.52" y1="2388.3" x2="1041.57" y2="2372.3" gradientUnits="userSpaceOnUse">
<stop stop-color="#CE8573"/>
<stop offset="1" stop-color="#F9AD9B"/>
</linearGradient>
<linearGradient id="paint10_linear_508_1098" x1="1041.24" y1="2416.3" x2="1041.3" y2="2392.3" gradientUnits="userSpaceOnUse">
<stop stop-color="#CE8573"/>
<stop offset="1" stop-color="#F9AD9B"/>
</linearGradient>
<linearGradient id="paint11_linear_508_1098" x1="1039.29" y1="2461.3" x2="1039.39" y2="2425.3" gradientUnits="userSpaceOnUse">
<stop stop-color="#CE8573"/>
<stop offset="1" stop-color="#F9AD9B"/>
</linearGradient>
<linearGradient id="paint12_linear_508_1098" x1="1036.49" y1="2553.29" x2="1036.64" y2="2497.29" gradientUnits="userSpaceOnUse">
<stop stop-color="#CE8573"/>
<stop offset="1" stop-color="#F9AD9B"/>
</linearGradient>
<linearGradient id="paint13_linear_508_1098" x1="1037.5" y1="2730.29" x2="1037.82" y2="2619.29" gradientUnits="userSpaceOnUse">
<stop stop-color="#CE8573"/>
<stop offset="1" stop-color="#F9AD9B"/>
</linearGradient>
<linearGradient id="paint14_linear_508_1098" x1="1040.84" y1="2355.3" x2="1040.86" y2="2348.3" gradientUnits="userSpaceOnUse">
<stop stop-color="#CE8573"/>
<stop offset="1" stop-color="#F9AD9B"/>
</linearGradient>
<linearGradient id="paint15_linear_508_1098" x1="1040.81" y1="2358.3" x2="1040.83" y2="2350.3" gradientUnits="userSpaceOnUse">
<stop stop-color="#CE8573"/>
<stop offset="1" stop-color="#F9AD9B"/>
</linearGradient>
<linearGradient id="paint16_linear_508_1098" x1="1040.76" y1="2362.3" x2="1040.79" y2="2353.3" gradientUnits="userSpaceOnUse">
<stop stop-color="#CE8573"/>
<stop offset="1" stop-color="#F9AD9B"/>
</linearGradient>
<linearGradient id="paint17_linear_508_1098" x1="1040.68" y1="2370.3" x2="1040.71" y2="2360.3" gradientUnits="userSpaceOnUse">
<stop stop-color="#CE8573"/>
<stop offset="1" stop-color="#F9AD9B"/>
</linearGradient>
<linearGradient id="paint18_linear_508_1098" x1="1020.25" y1="2294.5" x2="972.15" y2="2322.03" gradientUnits="userSpaceOnUse">
<stop stop-color="#E85937"/>
<stop offset="1" stop-color="#FF8C70"/>
</linearGradient>
<linearGradient id="paint19_linear_508_1098" x1="1062.25" y1="2294.5" x2="1110.35" y2="2322.03" gradientUnits="userSpaceOnUse">
<stop stop-color="#E85937"/>
<stop offset="1" stop-color="#FF8C70"/>
</linearGradient>
<linearGradient id="paint20_linear_508_1098" x1="1041.25" y1="2182" x2="1041.25" y2="2337" gradientUnits="userSpaceOnUse">
<stop stop-color="#EDEFF0"/>
<stop offset="1" stop-color="white"/>
</linearGradient>
<linearGradient id="paint21_linear_508_1098" x1="1054.75" y1="2215.56" x2="1054.13" y2="2221.38" gradientUnits="userSpaceOnUse">
<stop stop-color="#E85937"/>
<stop offset="1" stop-color="#FF8C70"/>
</linearGradient>
<linearGradient id="paint22_linear_508_1098" x1="1047.25" y1="2294" x2="1023.16" y2="2298.67" gradientUnits="userSpaceOnUse">
<stop stop-color="#E85937"/>
<stop offset="1" stop-color="#FF8C70"/>
</linearGradient>
<linearGradient id="paint23_linear_508_1098" x1="720" y1="0" x2="720" y2="1241" gradientUnits="userSpaceOnUse">
<stop stop-color="#040327"/>
<stop offset="0.24495" stop-color="#0D0E13"/>
</linearGradient>
<linearGradient id="paint24_linear_508_1098" x1="471.896" y1="1897.52" x2="-158.134" y2="1409" gradientUnits="userSpaceOnUse">
<stop stop-color="#F9BDB1" stop-opacity="0.24"/>
<stop offset="1" stop-color="#040327"/>
</linearGradient>
<linearGradient id="paint25_linear_508_1098" x1="471.896" y1="1897.52" x2="-158.134" y2="1409" gradientUnits="userSpaceOnUse">
<stop stop-color="#F9BDB1" stop-opacity="0.24"/>
<stop offset="1" stop-color="#040327"/>
</linearGradient>
<linearGradient id="paint26_linear_508_1098" x1="471.896" y1="1897.52" x2="-158.134" y2="1409" gradientUnits="userSpaceOnUse">
<stop stop-color="#F9BDB1" stop-opacity="0.24"/>
<stop offset="1" stop-color="#040327"/>
</linearGradient>
<linearGradient id="paint27_linear_508_1098" x1="471.896" y1="1897.52" x2="-158.134" y2="1409" gradientUnits="userSpaceOnUse">
<stop stop-color="#F9BDB1" stop-opacity="0.24"/>
<stop offset="1" stop-color="#040327"/>
</linearGradient>
<linearGradient id="paint28_linear_508_1098" x1="471.896" y1="1897.52" x2="-158.134" y2="1409" gradientUnits="userSpaceOnUse">
<stop stop-color="#F9BDB1" stop-opacity="0.24"/>
<stop offset="1" stop-color="#040327"/>
</linearGradient>
<linearGradient id="paint29_linear_508_1098" x1="471.896" y1="1897.52" x2="-158.134" y2="1409" gradientUnits="userSpaceOnUse">
<stop stop-color="#F9BDB1" stop-opacity="0.24"/>
<stop offset="1" stop-color="#040327"/>
</linearGradient>
<linearGradient id="paint30_linear_508_1098" x1="471.896" y1="1897.52" x2="-158.134" y2="1409" gradientUnits="userSpaceOnUse">
<stop stop-color="#F9BDB1" stop-opacity="0.24"/>
<stop offset="1" stop-color="#040327"/>
</linearGradient>
<linearGradient id="paint31_linear_508_1098" x1="471.896" y1="1897.52" x2="-158.134" y2="1409" gradientUnits="userSpaceOnUse">
<stop stop-color="#F9BDB1" stop-opacity="0.24"/>
<stop offset="1" stop-color="#040327"/>
</linearGradient>
<linearGradient id="paint32_linear_508_1098" x1="471.896" y1="1897.52" x2="-158.134" y2="1409" gradientUnits="userSpaceOnUse">
<stop stop-color="#F9BDB1" stop-opacity="0.24"/>
<stop offset="1" stop-color="#040327"/>
</linearGradient>
<clipPath id="clip0_508_1098">
<rect width="1440" height="1361" fill="white" transform="translate(0 2032)"/>
</clipPath>
<clipPath id="clip1_508_1098">
<rect width="1440" height="1241" fill="white" transform="translate(0 805)"/>
</clipPath>
</defs>
</svg>
