<svg width="611" height="611" viewBox="0 0 611 611" fill="none" xmlns="http://www.w3.org/2000/svg">
<path d="M458.25 458.25C542.612 373.888 542.612 237.111 458.25 152.75C373.889 68.3885 237.112 68.3885 152.75 152.75C68.3885 237.111 68.3885 373.888 152.75 458.25C237.111 542.611 373.889 542.611 458.25 458.25Z" fill="#407BFF"/>
<path opacity="0.7" d="M458.25 458.25C542.612 373.888 542.612 237.111 458.25 152.75C373.889 68.3885 237.112 68.3885 152.75 152.75C68.3885 237.111 68.3885 373.888 152.75 458.25C237.111 542.611 373.889 542.611 458.25 458.25Z" fill="#38546F"/>
<path d="M270.629 214.268L278.58 220.759L293.246 222.399L298.817 232.102L291.225 237.694L291.719 239.671L308.115 241.939L314.718 238.727L316.852 232.394L313.505 223.185L303.69 221.927L295.987 214.313L273.863 210.293L270.629 214.268Z" fill="#62D081"/>
<path d="M456.285 409.087L438.766 406.572L417.631 404.326L402.201 408.144L387.04 408.75L371.969 416.185L363.143 418.902L357.662 420.25L348.678 428.807L339.694 435.276L324.152 430.132V415.331L314.831 413.961L304.881 416.432L302.276 412.321L301.04 403.113L296.324 399.003L289.586 401.72L288.845 407.2L280.512 409.783L270.809 402.686L264.857 391.456L268.878 375.734L283.544 373.129L288.395 375.644L294.37 374.162L300.726 367.828L307.689 368.21L320.468 381.416L323.815 380.046L319.997 368.816L315.505 363.583L314.157 353.88L330.598 341.347L328.509 322.324L334.865 313.879L338.684 300.942L343.4 298.696L352.991 288.387L352.496 284.276L344.658 286.747L342.187 283.131L336.707 284.501L328.756 288.589L331.115 281.132L347.308 271.834L350.183 266.376L359.863 275.584L365.456 278.953L371.924 275.247L367.432 269.52L355.147 264.646L339.874 254.157L325.207 248.834L312.787 249.8L305.33 245.308H296.863L296.369 247.554L298.952 262.243L302.186 266.735L301.647 283.782L289.721 278.28L289.496 270.958L277.794 268.577L271.977 264.197L271.303 251.08L283.14 237.043L281.163 224.869L275.818 226.711L271.326 223.095L267.979 216.02L264.363 216.38V224.825L259.13 227.183L252.392 210.383L247.9 208.878L240.196 207.62L233.211 213.595L245.519 220.58L249.607 228.53L228.36 219.546L212.638 209.192L208.303 196.008L194.377 195.245L186.022 204.229C183.974 206.284 181.814 208.226 179.554 210.046C175.861 211.977 172.033 213.636 168.099 215.01L168.211 223.994L156.981 227.34L159.34 232.573L178.498 230.979L190.537 239.087L194.849 256.493L193.21 273.293L198.286 289.465L190.402 317.293L196.421 354.352L206.079 374.139L216.501 388.469L224.204 387.615L219.712 380.271L214.232 375.285L209.044 364.953L213.266 362.842L224.676 379.036L233.66 393.724L236.85 406.661L249.158 415.645L269.147 423.888L296.751 424.427L306.566 429.93L314.516 436.399L324.826 439.655L336.527 439.925L347.353 436.713C347.353 436.713 348.072 441.811 348.701 444.305C349.33 446.798 344.456 456.972 344.456 456.972L341.446 468.202L348.184 478.152L360.245 479.926L379.628 492.01L387.332 493.267L389.174 500.724L390.903 504.003C428.033 488.128 459.945 462.124 482.99 428.964L482.361 425.303L489.75 397.588L481.799 394.825L456.285 409.087Z" fill="#62D081"/>
<path d="M459.272 199.692L451.456 191.606L441.776 182.375L436.093 167.978L445.414 167.237L444.673 162.138L438.07 163.239L442.944 159.398L448.042 154.435L446.807 149.449L438.856 142.98L434.925 132.581C397.221 104.381 351.341 89.2624 304.258 89.5218C257.176 89.7813 211.465 105.405 174.074 134.018L187.55 139.297L182.833 150.01L173.849 154.345L176.095 168.023L172.479 170.494L168.863 177.232L171.581 186.058L180.295 184.958L178.903 194.279L187.37 192.19L197.23 170.202L196.758 161.869L210.437 157.377L212.436 150.639L226.608 145.518L226.002 136.691L236.333 133.614C236.333 133.614 242.802 127.775 244.306 127.393C247.307 127.316 250.309 127.451 253.29 127.797L262.275 131.907L272.718 129.324L280.31 121.62L292.012 119.779C293.923 120.47 295.973 120.685 297.986 120.408C300.457 119.801 306.97 114.456 306.97 114.456L323.635 119.846L330.71 122.833L332.575 130.29L340.278 129.437L341.648 124.338L348.858 125.731L349.352 129.818L335.405 137.522L346.635 146.372L367.006 151.874L376.956 159.96L388.186 158.253L389.444 152.66L393.172 150.684L377.764 143.946L369.566 144.934L375.541 141.34L367.455 134.355L375.788 131.772L388.231 135.029L393.666 146.259L400.763 151.358L408.804 164.676L421.741 169.932L425.806 186.35L439.103 190.977L439.956 196.57L440.069 203.42L445.279 211.618L447.391 215.863L456.217 215.257L458.104 205.801L459.272 199.692Z" fill="#62D081"/>
<path d="M453.23 147.966L453.926 150.819L453.41 159.398L456.644 166.002L462.596 166.631L464.954 176.086L458.351 175.076L463.539 202.32L460.282 214.74L467.717 227.677L475.668 232.057L482.406 259.009L494.062 278.302L504.978 292.497L517.151 292.654L518.656 281.716L519.981 280.032C518.899 271.121 517.272 262.285 515.107 253.574C505.158 213.116 483.66 176.424 453.23 147.966Z" fill="#62D081"/>
<path d="M337.583 173.369L301.175 167.08L286.868 171.145L285.723 181.477L278.153 176.491L267.822 181.701L270.899 198.367L281.455 202.612L285.588 191.539L294.909 197.154L313.663 206.767L320.221 220.467L337.246 233.674L357.28 225.004L354.922 217.66L348.341 210.316L342.412 190.663L345.287 180.96L337.583 173.369Z" fill="#62D081"/>
<path d="M367.186 177.636L359.212 177.501L354.114 184.576L361.166 198.142L367.635 196.547L367.186 177.636Z" fill="#62D081"/>
<path d="M415.789 175.615L396.653 170.853L391.689 165.755L388.096 168.225L394.025 177.322L400.224 189.517L408.445 190.64L409.433 188.282L403.099 181.948L417.271 183.7L415.789 175.615Z" fill="#62D081"/>
<path d="M315.078 391.299L313.573 393.769L329.61 394.556L337.314 400.036L347.016 398.688L349.128 392.354L337.201 393.185L315.078 391.299Z" fill="#62D081"/>
<path d="M361.705 389.772L351.98 395.342L354.473 398.958L367.41 395.746L368.915 391.142L364.558 392.759L361.705 389.772Z" fill="#62D081"/>
<mask id="mask0_510_1199" style="mask-type:luminance" maskUnits="userSpaceOnUse" x="89" y="89" width="433" height="433">
<path d="M458.25 458.25C542.612 373.888 542.612 237.111 458.25 152.75C373.889 68.3885 237.112 68.3885 152.75 152.75C68.3885 237.111 68.3885 373.888 152.75 458.25C237.111 542.611 373.889 542.611 458.25 458.25Z" fill="white"/>
</mask>
<g mask="url(#mask0_510_1199)">
</g>
<path d="M321.524 72.4109L347.137 75.8008C357.433 77.1819 365.217 85.7196 365.594 96.015L367.1 129.663C367.351 136.192 364.589 142.595 359.567 146.864L348.016 156.657L319.892 152.263L321.524 72.4109Z" fill="#0F1E70"/>
<path d="M336.331 75.6136C343.765 77.3955 349.43 79.9004 353.324 83.1284C359.166 87.9704 361.848 92.7725 363.349 96.0148C364.85 99.2572 366.564 108.007 362.646 113.7L362.008 114.636C358.472 119.877 356.375 124.041 357.139 130.088L357.234 130.811C357.705 134.308 358.603 139.553 359.93 146.547L359.567 146.864L349.555 155.35L320.632 116.062L321.269 84.8042L336.331 75.6136Z" fill="black" fill-opacity="0.28827"/>
<path d="M303.209 157.695C307.478 179.165 310.491 192.222 312.5 196.742C315.513 203.522 331.333 244.174 332.589 244.927C333.216 245.303 334.221 245.303 334.472 245.555C334.848 245.806 334.848 246.685 334.597 246.81C334.472 247.061 323.549 256.854 322.544 259.114C321.54 261.249 322.168 267.024 327.817 266.271C333.467 265.518 334.095 261.249 336.732 259.993C339.368 258.738 346.902 255.599 346.902 253.213C346.902 250.828 343.763 244.927 344.391 244.173C345.018 243.42 345.269 243.546 345.269 240.658C345.269 237.77 344.014 216.956 342.005 211.557C339.996 206.159 339.243 205.28 338.615 202.267C338.238 200.258 337.736 184.187 337.234 154.054L303.209 157.695Z" fill="#5428C6"/>
<path d="M344.516 244.299C344.139 245.303 347.027 250.953 347.027 253.213C347.027 255.598 339.619 258.737 336.857 259.993C334.221 261.248 333.467 265.517 327.943 266.27C322.293 267.024 321.665 261.248 322.67 259.114C323.674 256.979 334.472 247.061 334.723 246.81C334.848 246.684 334.848 246.182 334.723 245.805C336.355 245.931 337.862 245.931 339.494 245.68C341.126 245.429 342.758 245.052 344.516 244.299Z" fill="#0F1E70"/>
<path d="M347.027 253.213C347.027 255.599 339.619 258.738 336.857 259.993C334.221 261.249 333.467 265.518 327.943 266.271C327.327 266.353 326.77 266.358 326.269 266.298L326.598 266.158C328.859 265.194 330.357 264.442 331.094 263.901C333.211 262.348 334.692 259.988 335.523 259.285C337.563 257.559 340.485 256.705 343.199 254.871C344.531 253.971 345.733 252.947 346.805 251.799C346.943 252.343 347.027 252.827 347.027 253.213Z" fill="#3D68B2"/>
<path d="M338.615 196.617C338.74 199.881 338.866 201.764 338.992 202.392C336.104 204.15 333.216 205.908 330.454 207.54C327.566 209.297 324.051 210.427 320.033 210.93C316.643 204.652 313.755 199.002 312.625 196.742C312.123 195.612 311.621 194.105 310.993 192.097C312.751 191.846 315.136 191.72 318.15 191.72C322.795 191.72 329.575 193.352 338.615 196.617Z" fill="#0F1E70"/>
<path d="M315.498 79.4413C313.489 78.8135 311.731 79.1902 310.099 80.8224C307.714 83.2079 298.297 107.063 296.665 108.57C295.033 110.076 292.898 114.094 292.27 116.228C291.517 118.363 276.131 139.527 276.131 143.544C276.131 146.181 276.589 148.37 281.988 150.505L307.596 125.725L315.498 79.4413Z" fill="#0B1E8A"/>
<path d="M331.024 77.3711C345.212 79.7566 353.875 84.6532 357.139 91.8098C354.377 104.365 352.996 115.037 352.996 123.449C352.996 136.256 357.014 145.923 356.135 148.434C355.256 151.071 350.987 153.08 350.987 155.465C350.987 157.851 352.996 159.985 352.996 167.393C352.996 174.675 339.059 199.786 339.059 206.189C339.059 212.592 340.064 218.87 339.059 225.524C338.055 232.179 332.029 245.236 331.15 249.254C330.271 253.272 330.899 254.904 329.517 255.783C328.639 256.285 328.136 256.787 328.011 256.913V270.221C328.011 271.226 323.868 276.248 321.984 278.382C320.101 280.517 310.308 287.924 305.286 284.534C300.263 281.144 306.416 275.118 310.182 271.226C313.949 267.334 315.707 266.706 315.707 260.428C315.707 257.038 315.707 255.657 315.707 256.536C314.2 255.155 313.321 254.025 313.321 252.895C313.321 251.263 313.07 212.718 314.325 205.185C315.204 200.162 317.715 187.23 321.859 166.389L307.546 163.25C306.541 130.857 306.541 111.898 307.546 106.625C308.55 101.352 310.81 92.312 313.949 79.38C318.343 76.7434 323.993 76.1156 331.024 77.3711Z" fill="#E3EFF9"/>
<path d="M331.024 77.3711C345.212 79.7566 353.875 84.6532 357.139 91.8098C354.377 104.365 352.996 115.037 352.996 123.449C352.996 136.256 357.014 145.923 356.135 148.434C355.256 151.071 350.987 153.08 350.987 155.465C350.987 157.851 352.996 159.985 352.996 167.393C352.996 174.675 339.059 199.786 339.059 206.189C339.059 212.592 340.064 218.87 339.059 225.524C338.055 232.179 332.029 245.236 331.15 249.254C330.271 253.272 330.899 254.904 329.517 255.783C328.639 256.285 328.136 256.787 328.011 256.913V270.221C328.011 271.226 323.868 276.248 321.984 278.382C320.101 280.517 310.308 287.924 305.286 284.534C300.263 281.144 306.416 275.118 310.182 271.226C313.949 267.334 315.707 266.706 315.707 260.428C315.707 257.038 315.707 255.657 315.707 256.536C314.2 255.155 313.321 254.025 313.321 252.895C313.321 251.263 313.07 212.718 314.325 205.185C315.204 200.162 317.715 187.23 321.859 166.389L307.546 163.25C306.541 130.857 305.179 111.479 306.183 106.205C307.187 100.932 310.81 92.312 313.949 79.38C318.343 76.7434 323.993 76.1156 331.024 77.3711Z" fill="#457CFF"/>
<path d="M311.581 89.7422L311.241 91.4626C309.633 99.6551 308.598 106.066 308.135 110.694L307.797 114.377C307.677 115.637 307.548 116.948 307.407 118.309C313.243 121.809 323.497 121.326 327.719 119.072C334.433 115.49 340.186 108.648 344.98 98.5452L353.268 116.542C353.087 118.988 352.996 121.293 352.996 123.449C352.996 131.652 354.644 138.567 355.598 143.139L320.265 174.42L321.859 166.388V166.388L306.017 163.673C305.616 151.729 305.413 139.16 305.577 127.259C303.31 119.326 303.003 112.636 304.655 107.189C306.445 101.288 308.753 95.4725 311.581 89.7422Z" fill="black" fill-opacity="0.28827"/>
<path d="M320.632 174.42C320.632 174.42 332.391 163.532 338.992 162.417C345.592 161.302 352.982 162.874 352.982 162.874L350.366 153.993C350.366 153.993 344.325 153.751 337.975 155.43C331.626 157.11 320.897 166.42 320.897 166.42H315.498L320.632 174.42Z" fill="#0F1E70"/>
<path d="M328.136 256.662C328.011 256.787 327.885 256.913 327.885 257.038V270.222C327.885 271.226 323.742 276.248 321.859 278.383C319.975 280.517 310.182 287.925 305.16 284.535C300.138 281.145 306.29 275.118 310.057 271.226C313.823 267.334 315.581 266.706 315.581 260.428V256.536C317.088 257.038 318.845 257.29 320.729 257.29C322.863 257.29 325.374 257.038 328.136 256.662Z" fill="#0F1E70"/>
<path d="M327.885 268.938L327.885 270.221C327.885 271.225 323.742 276.247 321.859 278.382L321.656 278.6C319.358 280.976 310.023 287.816 305.16 284.534C304.385 284.011 303.876 283.425 303.584 282.794C305.572 283.852 307.324 284.291 308.842 284.112C311.539 283.794 317.626 280.962 320.41 277.862L321.069 277.118C322.7 275.258 324.972 272.531 327.885 268.938Z" fill="#3D68B2"/>
<path d="M339.436 203.804C339.185 204.808 339.059 205.687 339.059 206.315C339.059 208.073 339.185 209.705 339.185 211.337C331.652 214.225 326.002 215.48 322.235 215.355C319.096 215.229 316.334 214.727 313.823 213.848C313.949 209.83 314.2 206.691 314.451 204.934C314.702 203.302 315.204 200.79 315.832 197.275C318.845 197.024 321.859 196.898 325.123 197.275C329.141 197.652 333.912 199.786 339.436 203.804Z" fill="#0F1E70"/>
<path d="M320.012 175.242L343.045 153.962H319.767L313.823 166.108L320.012 175.242Z" fill="black" fill-opacity="0.28827"/>
<path d="M337.113 79.4461L329.871 92.1891C329.62 92.5658 329.118 92.8169 328.741 92.6913L323.845 91.8125C323.217 91.6869 322.84 91.1847 322.966 90.5569L324.288 79.1543C325.92 79.2799 327.3 81.0735 329.183 81.4502C331.317 82.0779 335.104 78.9439 337.113 79.4461Z" fill="#0B1E8A"/>
<path fill-rule="evenodd" clip-rule="evenodd" d="M335.461 80.4458L329.56 90.7412C329.309 91.1179 328.806 91.369 328.43 91.2434L323.533 90.3645C322.905 90.239 322.529 89.7368 322.654 89.109L323.91 78.3114C325.542 78.437 327.3 78.5625 329.183 78.9392C331.317 79.5669 333.452 79.9436 335.461 80.4458Z" fill="#BAC8FF"/>
<path d="M308.666 98.2364L306.062 107.566C305.937 108.068 306.062 108.444 306.565 108.821C308.354 109.7 309.51 110.959 315.375 112.526C319.735 113.69 327.734 114.52 331.552 114.87C332.811 114.985 333.973 114.216 334.379 113.018L337.25 104.547C337.53 103.723 336.988 102.849 336.126 102.73C332.458 102.227 323.751 101.014 320.609 100.409C314.613 99.2551 311.981 97.4044 309.921 97.3575C309.293 97.3575 308.791 97.7342 308.666 98.2364Z" fill="#E7F0F8"/>
<path d="M301.619 110.802L328.864 115.699C329.994 115.95 330.747 116.829 330.747 117.959V147.84C330.747 148.468 330.496 149.096 329.994 149.598L310.156 166.171C309.654 166.673 308.901 166.799 308.273 166.673L278.14 160.145C277.136 159.894 276.382 159.015 276.382 158.01V127.626C276.382 126.873 276.759 126.12 277.387 125.743L300.112 111.304C300.489 110.802 300.991 110.677 301.619 110.802Z" fill="#D0D4FF"/>
<path d="M329.868 116.201C330.37 116.578 330.747 117.206 330.747 117.959V147.841C330.747 148.468 330.496 149.096 329.993 149.598L310.156 166.171C309.905 166.423 309.654 166.548 309.277 166.674V134.658C309.277 133.779 309.654 133.025 310.282 132.523L329.868 116.201Z" fill="#3D68B2"/>
<path d="M309.152 166.548C308.775 166.674 308.398 166.674 308.022 166.548L277.889 160.019C276.884 159.768 276.131 158.889 276.131 157.885V127.501C276.131 127.124 276.257 126.622 276.508 126.371L307.896 133.025C308.649 133.151 309.277 133.904 309.277 134.658V166.548H309.152Z" fill="#F8FCFF"/>
<path d="M353.038 87.3517C359.693 85.7195 363.585 101.163 360.069 107.942C356.554 114.722 346.51 135.062 345.128 137.196C343.622 139.331 327.802 154.648 325.165 155.778C322.529 156.908 321.148 155.527 320.52 156.281C319.892 157.034 318.762 157.787 318.762 159.168C318.762 160.549 319.516 160.8 319.139 161.93C318.762 163.06 316.502 170.217 315.372 171.598C314.242 172.979 303.947 176.871 301.812 174.486C299.678 172.1 305.705 161.805 305.202 161.303C304.575 160.675 303.696 163.06 301.561 163.563C299.427 164.065 298.799 162.558 299.176 162.182C299.552 161.805 303.319 158.666 304.072 156.908C304.951 155.151 309.095 153.393 310.35 153.393C311.606 153.393 313.112 152.012 313.112 151.007C313.112 150.003 312.485 148.371 313.112 147.492C313.74 146.613 328.43 127.278 330.439 127.278C332.322 127.278 332.699 125.52 332.699 124.39C332.573 123.511 343.371 89.7372 353.038 87.3517Z" fill="#0B1E8A"/>
<path d="M320.897 156.155C320.771 156.155 320.645 156.28 320.52 156.28C319.892 156.908 318.762 157.787 318.762 159.168C318.762 160.549 319.516 160.8 319.139 161.93C318.762 163.06 316.502 170.217 315.372 171.598C314.242 172.979 303.947 176.871 301.812 174.486C299.678 172.1 305.705 161.805 305.202 161.303C304.575 160.675 303.696 163.06 301.561 163.563C299.427 164.065 298.799 162.558 299.176 162.181C299.552 161.805 303.319 158.666 304.072 156.908C304.951 155.15 309.095 153.393 310.35 153.393C311.606 153.393 313.112 152.012 313.112 151.007C313.112 150.882 313.112 150.631 313.112 150.505C314.368 151.886 315.498 152.891 316.377 153.518C317.256 154.397 318.762 155.276 320.897 156.155Z" fill="#0F1E70"/>
<path d="M355.023 107.189C357.797 107.189 360.046 104.435 360.046 101.037C360.046 97.6392 357.797 94.8848 355.023 94.8848C352.25 94.8848 350.001 97.6392 350.001 101.037C350.001 104.435 352.25 107.189 355.023 107.189Z" fill="#0F1E70"/>
<path d="M356.655 107.189C359.429 107.189 361.678 104.435 361.678 101.037C361.678 97.6394 359.429 94.885 356.655 94.885C353.882 94.885 351.633 97.6394 351.633 101.037C351.633 104.435 353.882 107.189 356.655 107.189Z" fill="#E7F0F8"/>
<path d="M327.676 81.7019C330.187 82.3297 334.08 81.5763 338.976 79.4419C338.474 77.9353 338.223 76.4287 338.223 74.6709C338.223 72.0343 339.855 66.1333 340.734 62.8689C341.613 59.6045 341.613 51.8202 337.846 49.058C334.08 46.1703 325.856 45.5588 321.247 47.1217C315.536 49.058 316.976 51.3919 316.63 56.4892C316.284 61.5865 317.105 74.3013 318.738 75.6138C320.372 76.9263 324.732 77.3983 324.104 77.7749C324.857 79.2816 325.165 81.0741 327.676 81.7019Z" fill="#FFA877"/>
<path d="M331.343 81.7898L331.109 81.8201C329.78 81.9794 328.629 81.94 327.676 81.7018C325.266 81.0992 324.886 79.4231 324.193 77.957L324.104 77.7749C325.89 78.5185 328.239 78.4043 331.149 77.4322L331.59 77.2799C334.41 76.2741 334.328 77.7774 331.343 81.7898Z" fill="black" fill-opacity="0.28827"/>
<path d="M324.686 45.4977C329.134 45.4977 336.464 44.9077 339.978 47.6652C343.492 50.4228 343.492 57.8562 342.672 60.8536C342.086 63.1316 339.158 68.0472 337.752 71.5242L337.635 71.6441C339.509 62.8918 339.509 57.8562 337.635 56.7772C334.824 55.0987 334.004 62.2923 332.95 62.2923C331.895 62.2923 333.535 55.5783 331.544 54.4992C330.706 54.045 327.864 53.6902 324.35 54.4992C322.054 55.0276 315.498 54.4992 315.498 54.4992C315.498 54.4992 316.552 45.4977 324.686 45.4977Z" fill="#0D134E"/>
<path d="M273.96 141.053C273.158 143.03 272.224 148.557 273.84 151.922C275.457 155.287 277.553 157.213 279.918 158.101C281.883 158.778 285.538 155.111 284.861 152.279C284.119 148.822 278.244 145.778 277.653 144.957C277.062 144.135 276.208 143.215 277.141 142.486C278.784 141.303 280.453 140.37 280.322 139.121C280.099 136.999 274.651 139.213 273.96 141.053Z" fill="#0F1E70"/>
<path d="M353.149 60.4829C353.149 73.5802 342.531 84.1976 329.434 84.1976C316.337 84.1976 305.719 73.5802 305.719 60.4829C305.719 47.3857 316.337 36.7683 329.434 36.7683C342.531 36.7683 353.149 47.3857 353.149 60.4829Z" fill="#0B1E8A" fill-opacity="0.19" stroke="#ECEAFE" stroke-width="1.53661"/>
<path opacity="0.504464" fill-rule="evenodd" clip-rule="evenodd" d="M314.155 52.5535C315.103 50.3195 314.837 48.0692 313.561 47.5273C312.284 46.9854 310.48 48.3572 309.532 50.5912C308.584 52.8252 308.85 55.0755 310.127 55.6174C311.403 56.1593 313.207 54.7875 314.155 52.5535Z" fill="white"/>
<path d="M106.907 206.431L103.595 200.258C100.433 194.536 93.9584 191.525 87.484 192.88L67.0069 197.247C60.8336 198.602 56.166 203.721 55.4132 210.045L49.0894 265.303C48.3365 272.079 52.4019 278.553 58.7257 280.962L82.967 289.695L106.907 206.431Z" fill="#0F1E70"/>
<path d="M95.136 247.372L91.9349 193.007L90.3424 193.59C74.6484 199.374 65.8997 203.931 64.0961 207.261L64.0117 207.426C61.5842 212.504 57.3745 211.922 56.192 221.192L54.5016 235.699C52.9316 249.454 51.1066 267.629 52.2665 273.544C52.5046 274.758 52.824 276.015 53.2248 277.313C54.742 278.892 56.6072 280.155 58.7258 280.962L69.2655 284.76L90.4564 263.65L95.136 247.372Z" fill="black" fill-opacity="0.28827"/>
<path d="M88.9896 197.397C85.5266 199.054 78.2993 203.42 67.4585 210.497C71.9755 306.559 74.3846 356.095 74.9868 358.956C75.7397 363.322 64.5977 415.118 66.1034 419.032C67.609 422.797 70.3193 425.657 72.1261 426.711C73.9329 427.765 70.0181 436.95 70.0181 438.757C70.0181 440.564 68.5125 450.953 69.1147 454.265C69.717 457.578 70.0181 462.998 76.9442 462.998C83.8703 462.998 85.2254 457.879 84.4726 452.759C83.7197 447.49 83.4186 447.339 84.4726 444.328C85.5266 441.316 84.6232 440.714 83.5692 436.197C82.3646 431.529 83.1175 425.657 84.4726 424.754C85.8277 423.851 91.0975 420.237 92.0009 416.774C92.9044 413.311 102.089 370.249 102.089 364.075C102.089 359.859 102.842 331.308 102.842 331.308C102.842 331.308 107.811 361.365 107.811 363.624C107.811 366.936 107.359 392.533 106.004 396.447C104.799 400.513 104.649 406.084 106.004 407.439C106.907 408.342 107.509 408.944 107.66 409.396C106.455 417.527 106.154 422.194 106.757 423.549C107.66 425.507 114.134 425.507 117.597 430.325C121.06 435.143 124.222 437.402 129.492 437.402C134.762 437.402 139.58 436.498 135.665 430.927C131.901 425.356 121.964 417.075 121.964 413.612V406.234C124.674 404.277 126.029 402.47 126.029 400.814C126.029 398.254 132.202 372.357 132.955 367.689C133.708 363.021 133.859 355.192 132.955 348.567C132.052 341.942 129.041 297.826 126.933 292.255C124.825 286.684 123.62 286.232 123.62 283.974C123.62 281.715 123.47 279.005 124.222 277.951C124.975 276.897 126.18 275.692 126.481 274.036C126.782 272.38 130.546 254.914 129.342 238.201C128.137 221.488 119.555 201.914 116.242 199.957C113.984 198.602 110.822 197.849 106.606 197.548C98.4753 195.741 92.4527 195.741 88.9896 197.397Z" fill="#457CFF"/>
<path d="M128.438 227.383C128.438 227.383 107.725 242.898 99.8306 241.363C91.9358 239.828 82.8917 224.349 82.8917 224.349L68.5393 264.174L75.6963 295.868C75.6963 295.868 81.4965 297.629 82.8917 292.157C84.287 286.684 78.2629 265.034 82.8917 261.69C87.5206 258.345 91.1847 275.986 98.0431 275.986C104.902 275.986 126.51 272.013 126.51 272.013L130.847 241.363L128.438 227.383Z" fill="black" fill-opacity="0.28827"/>
<path d="M107.215 359.503C107.366 361.611 107.691 363.015 107.691 363.467C107.691 364.521 107.39 367.538 107.691 371.905C111.455 372.808 114.737 374.013 121.814 371.905C125.578 370.851 131.45 367.99 133.708 366.635C133.859 362.871 134.311 358.103 133.708 354.188C133.558 352.984 133.558 349.959 132.654 347.663C126.632 349.169 119.555 352.18 117.447 353.385C115.189 354.891 113.388 356.04 107.215 359.503Z" fill="#0F1E70"/>
<path d="M72.879 315.743C78.7511 316.195 84.2693 315.282 88.0335 316.638C92.2494 318.143 99.6934 321.417 103.143 323.422C106.907 321.077 112.333 316.039 117.067 312.83C121.767 309.644 123.642 308.486 129.084 306.284C128.275 299.312 127.686 293.911 126.933 292.255C125.728 289.093 124.955 288.039 124.353 286.834C118.933 290.448 114.887 293.76 112.328 297.223C109.316 301.138 106.606 307.312 103.896 315.743C100.132 309.118 95.6147 302.794 90.4954 297.223C85.6772 291.803 79.2028 288.34 71.2228 286.834C72.1262 297.675 72.5779 307.462 72.879 315.743Z" fill="#0F1E70"/>
<path d="M70.0183 301.59C70.1689 301.74 70.1689 301.891 70.3194 302.192C71.6745 305.655 69.8677 305.956 69.2655 309.268C68.6632 312.732 70.8501 326.822 73.1086 329.08C73.1086 332.11 78.5571 334.277 79.4605 334.88C80.3639 335.482 83.2682 336.069 85.075 335.618C86.8818 335.166 81.7625 318.152 83.1176 317.098C84.3222 316.044 87.9358 320.41 89.592 321.314C91.2483 322.067 92.3022 319.507 90.3449 316.345C88.5381 313.183 82.8264 303.848 81.6218 302.192C80.4173 300.536 82.8165 292.089 82.8165 290.433C82.8165 289.981 82.5154 288.942 82.8165 288.34C80.7086 288.34 78.7512 288.34 76.7938 288.641C74.987 289.092 72.5779 300.385 70.0183 301.59Z" fill="black" fill-opacity="0.28827"/>
<path d="M107.66 409.095C107.811 409.095 107.811 409.095 107.66 409.095C106.455 417.376 106.154 422.044 106.757 423.399C107.66 425.356 114.134 425.356 117.597 430.174C121.06 434.992 124.222 437.251 129.492 437.251C134.762 437.251 139.58 436.348 135.665 430.777C131.901 425.206 121.964 416.924 121.964 413.461V406.234C119.404 407.138 116.845 407.89 114.435 408.342C112.177 408.794 109.918 409.095 107.66 409.095Z" fill="#0F1E70"/>
<path d="M106.757 423.399C107.66 425.356 114.135 425.356 117.598 430.174C121.061 434.992 124.223 437.251 129.493 437.251L130.305 437.243C133.13 437.187 135.694 436.807 136.674 435.501C130.818 435.707 126.867 435.313 124.821 434.316C121.3 432.601 118.429 428.154 116.095 425.808C114.822 424.528 111.632 423.388 106.525 422.388C106.574 422.826 106.652 423.163 106.757 423.399Z" fill="#3D68B2"/>
<path d="M69.1149 457.276C69.7172 460.589 71.8257 465.081 76.9577 465.081C81.6929 465.081 85.0597 461.438 84.5773 456.615C84.163 460.169 82.0928 462.998 76.9444 462.998C70.0183 462.998 69.7172 457.578 69.1149 454.265C69.0702 454.019 69.0371 453.734 69.0142 453.417C68.9436 455.008 68.9544 456.394 69.1149 457.276Z" fill="#3D68B2"/>
<path d="M72.2769 426.862C73.632 428.367 70.0184 436.95 70.0184 438.757C70.0184 440.563 68.5127 450.952 69.1149 454.265C69.7172 457.577 70.0184 462.998 76.9444 462.998C83.8705 462.998 85.2256 457.879 84.4728 452.759C83.72 447.489 83.4188 447.339 84.4728 444.328C85.5268 441.316 84.6234 440.714 83.5694 436.197C82.666 432.433 82.9671 427.916 83.72 425.808C82.8166 426.259 81.3109 426.711 79.3535 427.163C77.095 427.464 74.6859 427.464 72.2769 426.862Z" fill="#0F1E70"/>
<path d="M74.987 359.257C75.1376 360.913 74.2342 366.635 73.0296 373.711C78.2995 375.518 82.9671 376.422 86.8818 376.422C91.2483 376.422 95.7653 375.819 100.583 374.765C101.487 369.496 102.089 365.43 102.089 363.925C102.089 363.021 102.089 361.666 102.089 360.01C97.1204 359.106 92.6034 358.655 88.6886 358.655C85.2256 358.655 80.7086 358.805 74.987 359.257Z" fill="#0F1E70"/>
<path d="M114.285 199.204C118.651 200.258 123.018 201.312 124.674 202.215C127.083 203.57 151.325 236.093 152.83 242.115C154.336 248.289 153.131 254.763 148.313 257.774C143.495 260.786 124.072 269.368 120.759 268.013C117.447 266.808 118.35 266.206 115.791 266.959C113.231 267.712 109.919 271.627 106.004 273.132C99.8305 275.894 90.7965 263.948 94.8618 260.936C96.0663 259.13 100.324 258.076 101.529 257.774C104.389 257.022 106.004 257.774 106.757 257.774C108.563 257.774 110.822 257.022 110.822 255.968C110.822 254.914 110.822 253.408 112.177 252.505C113.532 251.752 129.643 241.061 129.643 240.309C129.643 239.556 128.035 229.388 124.722 220.204C120.356 207.706 116.694 200.559 114.285 199.204Z" fill="#0B1E8A"/>
<path d="M107.359 257.985C107.359 257.985 103.456 255.659 102.115 255.659C100.774 255.659 94.9924 255.533 94.5939 256.511C94.1954 257.489 97.0719 261.035 97.0719 261.035L107.359 257.985Z" fill="#3D68B2"/>
<path d="M110.275 257.103L110.053 256.979C109.235 257.471 107.905 257.775 106.757 257.775C106.04 257.775 104.541 257.092 101.929 257.677L101.529 257.775C100.324 258.076 96.0664 259.13 94.8618 260.937C90.8493 263.909 99.5981 275.586 105.762 273.233L106.004 273.133C109.919 271.627 113.231 267.712 115.791 266.959L116.306 266.814C116.615 266.732 116.861 266.678 117.068 266.65L116.899 266.094C116.387 264.458 115.814 262.99 115.178 261.689C114.372 260.041 112.737 258.512 110.275 257.103L110.053 256.979L110.275 257.103Z" fill="#0F1E70"/>
<path fill-rule="evenodd" clip-rule="evenodd" d="M108.413 256.721C111.274 256.119 113.984 256.119 116.694 256.721C119.404 257.323 121.663 258.979 123.47 261.69L144.248 251.752C144.248 250.246 143.947 249.192 143.043 248.44C142.37 244.368 134.913 241.363 130.847 241.363C126.782 241.363 111.876 247.988 110.069 249.343C109.015 250.397 108.413 252.806 108.413 256.721Z" fill="#BAC8FF"/>
<path d="M126.228 255.654L142.941 248.286C143.694 249.039 144.44 249.737 144.248 251.752L123.47 261.689C121.663 258.979 119.404 257.731 116.694 256.978C113.984 256.376 111.274 256.376 108.413 256.978C108.413 253.214 108.913 251.9 110.117 250.846C120.283 249.127 124.722 255.805 126.228 255.654Z" fill="#3D68B2"/>
<path d="M62.0383 213.358C64.2968 210.798 67.6093 210.045 70.3195 210.045C73.0297 210.045 85.3762 214.713 83.72 229.318C82.0637 244.073 77.8479 250.698 77.8479 256.721C77.8479 262.744 79.0524 266.508 79.9558 271.025C80.8592 275.542 81.7626 289.545 80.8592 291.653C79.9558 293.76 77.9984 296.17 77.9984 297.675C77.9984 299.331 77.3961 301.439 78.6007 303.096C79.8052 304.752 84.0211 308.667 85.9785 311.979C87.7853 315.141 86.8819 317.851 85.2256 316.948C83.5694 316.195 79.9558 311.678 78.7513 312.732C77.5467 313.786 81.0098 330.8 79.203 331.252C77.3962 331.703 76.7939 329.294 75.8905 328.692C74.9871 328.09 69.1149 327.789 67.007 325.681C64.7485 323.422 64.2968 309.871 64.8991 306.408C65.5013 302.945 67.3081 302.794 65.953 299.331C64.5979 295.868 61.5866 295.868 60.8337 293.158C60.0809 290.448 54.3594 266.809 55.1122 261.539C56.0156 256.269 57.3707 240.46 57.3707 237.147C57.2201 233.684 59.7798 215.917 62.0383 213.358Z" fill="#0B1E8A"/>
<path d="M65.5014 298.578C65.6519 298.729 65.6519 298.88 65.8025 299.181C67.1576 302.644 65.3508 302.945 64.7485 306.257C64.1463 309.72 64.598 323.271 66.8565 325.53C68.9644 327.788 75.5459 329.761 76.4493 330.363C77.3527 330.965 78.7513 333.058 80.5581 332.607C82.3649 332.155 78.7513 315.141 80.1064 314.087C81.3109 313.033 84.9246 317.399 86.5808 318.303C88.237 319.056 89.291 316.496 87.3336 313.334C85.5268 310.172 79.589 304.605 78.6378 302.968C77.6866 301.331 78.1861 299.095 78.1861 297.439C78.1861 296.987 78.3367 296.385 78.6378 295.782C76.5299 295.782 74.2343 295.868 72.2769 296.169C70.4701 296.621 68.061 297.374 65.5014 298.578Z" fill="#0F1E70"/>
<path d="M66.6675 218.98C70.1468 219.284 72.6382 223.292 72.2324 227.931C71.8265 232.57 68.677 236.084 65.1977 235.779C61.7184 235.475 59.227 231.467 59.6328 226.828C60.0387 222.189 63.1882 218.676 66.6675 218.98Z" fill="#0F1E70"/>
<path d="M64.7466 218.811C68.2259 219.116 70.7173 223.123 70.3115 227.762C69.9056 232.401 66.7561 235.915 63.2768 235.611C59.7976 235.306 57.3061 231.299 57.7119 226.66C58.1178 222.021 61.2673 218.507 64.7466 218.811Z" fill="#F8FCFF"/>
<path d="M123.921 222.843C123.771 222.09 123.168 221.639 122.416 221.789L86.8817 227.21C86.1289 227.36 85.6772 227.962 85.8277 228.715L88.0863 244.826V244.826C88.2368 245.579 88.8391 246.03 89.5919 245.88L125.427 240.008C126.18 239.857 126.631 239.255 126.481 238.502L123.921 222.843Z" fill="#F8FCFF"/>
<path d="M139.137 247.171L139.11 247.179L139.085 247.192C138.957 247.256 138.877 247.28 138.823 247.291C138.78 247.3 138.745 247.302 138.693 247.302C138.08 247.165 137.735 246.712 137.826 246.256L137.829 246.243L137.831 246.23L144.151 196.867C144.284 196.353 144.514 196.064 144.92 195.963L144.93 195.96L144.94 195.957L177.257 186.037H177.257H177.258H177.259H177.26H177.261H177.262H177.263H177.264H177.265H177.265H177.266H177.267H177.268H177.269H177.27H177.271H177.272H177.272H177.273H177.274H177.275H177.276H177.277H177.278H177.279H177.28H177.28H177.281H177.282H177.283H177.284H177.285H177.286H177.287H177.287H177.288H177.289H177.29H177.291H177.292H177.293H177.294H177.295H177.295H177.296H177.297H177.298H177.299H177.3H177.301H177.302H177.302H177.303H177.304H177.305H177.306H177.307H177.308H177.309H177.31H177.31H177.311H177.312H177.313H177.314H177.315H177.316H177.317H177.317H177.318H177.319H177.32H177.321H177.322H177.323H177.324H177.325H177.325H177.326H177.327H177.328H177.329H177.33H177.331H177.332H177.332H177.333H177.334H177.335H177.336H177.337H177.338H177.339H177.34H177.34H177.341H177.342H177.343H177.344H177.345H177.346H177.347H177.347H177.348H177.349H177.35H177.351H177.352H177.353H177.354H177.355H177.355H177.356H177.357H177.358H177.359H177.36H177.361H177.362H177.362H177.363H177.364H177.365H177.366H177.367H177.368H177.369H177.37H177.37H177.371H177.372H177.373H177.374H177.375H177.376H177.377H177.377H177.378H177.379H177.38H177.381H177.382H177.383H177.384H177.385H177.385H177.386H177.387H177.388H177.389H177.39H177.391H177.392H177.392H177.393H177.394H177.395H177.396H177.397H177.398H177.399H177.4H177.4H177.401H177.402H177.403H177.404H177.405H177.406H177.407H177.407H177.408H177.409H177.41H177.411H177.412H177.413H177.414H177.415H177.415H177.416H177.417H177.418H177.419H177.42H177.421H177.422H177.422H177.423H177.424H177.425H177.426H177.427H177.428H177.429H177.43H177.43H177.431H177.432H177.433H177.434H177.435H177.436H177.437H177.437H177.438H177.439H177.44H177.441H177.442H177.443H177.444H177.445H177.445H177.446H177.447H177.448H177.449H177.45H177.451H177.452H177.452H177.453H177.454H177.455H177.456H177.457H177.458H177.459H177.46H177.46H177.461H177.462H177.463H177.464H177.465H177.466H177.467H177.467H177.468H177.469H177.47H177.471H177.472H177.473H177.474H177.475H177.475H177.476H177.477H177.478H177.479H177.48H177.481H177.482H177.482H177.483H177.484H177.485H177.486H177.487H177.488H177.489H177.49H177.49H177.491H177.492H177.493H177.494H177.495H177.496H177.497H177.497H177.498H177.499H177.5H177.501H177.502H177.503H177.504H177.505H177.505H177.506H177.507H177.508H177.509H177.51H177.511H177.512H177.512H177.513H177.514H177.515H177.516H177.517H177.518H177.519H177.52H177.52H177.521H177.522H177.523H177.524H177.525H177.526H177.527H177.527H177.528H177.529H177.53H177.531H177.532H177.533H177.534H177.535H177.535H177.536H177.537H177.538H177.539H177.54H177.541H177.542H177.542H177.543H177.544H177.545H177.546H177.547H177.548H177.549H177.55H177.55H177.551H177.552H177.553H177.554H177.555H177.556H177.557H177.557H177.558H177.559H177.56H177.561H177.562H177.563H177.564H177.565H177.565H177.566H177.567H177.568H177.569H177.57H177.571H177.572H177.572H177.573H177.574H177.575H177.576H177.577H177.578H177.579H177.58H177.58H177.581H177.582H177.583H177.584H177.585H177.586H177.587H177.587H177.588H177.589H177.59H177.591H177.592H177.593H177.594H177.595H177.595H177.596H177.597H177.598H177.599H177.6H177.601H177.602H177.602H177.603H177.604H177.605H177.606H177.607H177.608H177.609H177.61H177.61H177.611C178.224 186.174 178.57 186.627 178.479 187.083L178.476 187.096L178.475 187.109L172.151 235.893L172.148 235.917V235.942C172.148 236.042 172.094 236.18 171.964 236.325C171.836 236.467 171.666 236.578 171.508 236.631C171.507 236.632 171.507 236.632 171.507 236.632L139.137 247.171Z" fill="#FFAF8A" fill-opacity="0.47" stroke="#FF8C70" stroke-width="0.768307"/>
<path d="M105.625 197.031L89.7556 196.94L87.6565 198.031L98.3829 211.853C98.6841 212.304 99.1358 212.605 99.738 212.605L107.961 211.25H108.112C108.864 211.099 109.316 210.346 109.015 209.594L105.625 197.031Z" fill="#0B1E8A"/>
<path fill-rule="evenodd" clip-rule="evenodd" d="M106.154 197.397H89.1402L99.5293 210.346C99.8304 210.797 100.282 211.099 100.884 211.099L107.961 209.743H108.112C108.864 209.593 109.316 208.84 109.015 208.087L106.154 197.397Z" fill="#BAC8FF"/>
<path d="M99.8303 199.204C96.2167 199.204 92.7537 198.602 88.9895 197.397C89.4412 191.826 89.4412 187.309 88.9895 183.846C88.3872 178.727 87.9355 160.207 95.3133 158.25C102.691 156.142 111.876 159.153 115.339 165.778C120.458 175.414 113.532 194.386 110.521 194.988C109.467 195.289 107.961 195.139 105.853 194.837V198.451C105.401 199.053 103.444 199.204 99.8303 199.204Z" fill="#FFA877"/>
<path d="M98.3829 193.289C99.6427 195.212 101.138 196.429 102.869 196.94C103.958 197.261 104.953 197.407 105.855 197.377L105.853 194.838L106.183 194.884V194.884L106.154 194.835C104.786 194.838 103.594 194.738 102.58 194.537C101.565 194.335 100.166 193.919 98.3829 193.289Z" fill="black" fill-opacity="0.28827"/>
<path d="M122.115 163.671C123.169 165.779 122.265 173.909 117.296 173.909C112.177 173.909 105.251 168.79 102.993 168.79C100.885 168.79 101.336 176.619 99.8306 177.071C98.325 177.673 100.433 172.705 98.0238 171.801C95.6148 170.898 94.2597 172.253 94.2597 173.006C94.2597 173.759 93.6574 178.878 91.7 180.082C90.3449 180.835 89.4415 181.588 88.9898 182.492C87.183 180.534 86.129 178.426 86.129 176.168C86.129 172.705 86.129 165.176 87.3336 163.219C88.237 161.864 89.8932 160.358 92.6034 158.852C93.6574 155.239 95.3136 153.583 97.271 153.583C100.433 153.583 104.498 156.293 106.154 156.293C107.811 156.293 113.833 155.992 115.64 157.648C117.447 159.455 115.791 162.316 116.544 162.767C117.296 163.219 121.061 161.563 122.115 163.671Z" fill="#0B1E8A"/>
<path d="M71.8406 175.264C71.8406 191.554 85.0463 204.76 101.336 204.76C117.626 204.76 130.832 191.554 130.832 175.264C130.832 158.974 117.626 145.768 101.336 145.768C85.0463 145.768 71.8406 158.974 71.8406 175.264Z" fill="#0B1E8A" fill-opacity="0.19" stroke="#ECEAFE" stroke-width="1.53661"/>
<path opacity="0.504464" fill-rule="evenodd" clip-rule="evenodd" d="M82.596 165.569C83.7332 162.89 83.4141 160.192 81.8832 159.542C80.3523 158.892 78.1893 160.537 77.0521 163.216C75.9149 165.895 76.2341 168.594 77.765 169.244C79.2959 169.894 81.4588 168.248 82.596 165.569Z" fill="white"/>
</svg>
