<svg width="560" height="560" viewBox="0 0 560 560" fill="none" xmlns="http://www.w3.org/2000/svg">
<path d="M280 560C434.64 560 560 434.64 560 280C560 125.36 434.64 0 280 0C125.36 0 0 125.36 0 280C0 434.64 125.36 560 280 560Z" fill="#747474"/>
<path d="M280 325C343.513 325 395 273.513 395 210C395 146.487 343.513 95 280 95C216.487 95 165 146.487 165 210C165 273.513 216.487 325 280 325Z" fill="white"/>
<mask id="mask0_514_1395" style="mask-type:luminance" maskUnits="userSpaceOnUse" x="0" y="0" width="560" height="560">
<path d="M280 560C434.64 560 560 434.64 560 280C560 125.36 434.64 0 280 0C125.36 0 0 125.36 0 280C0 434.64 125.36 560 280 560Z" fill="white"/>
</mask>
<g mask="url(#mask0_514_1395)">
<path d="M280 735C393.218 735 485 643.218 485 530C485 416.782 393.218 325 280 325C166.782 325 75 416.782 75 530C75 643.218 166.782 735 280 735Z" fill="white"/>
</g>
</svg>
