<svg width="1440" height="1241" viewBox="0 0 1440 1241" fill="none" xmlns="http://www.w3.org/2000/svg">
<g clip-path="url(#clip0_513_1200)">
<rect width="1440" height="1241" fill="url(#paint0_linear_513_1200)"/>
<g opacity="0.4">
<path d="M-38.3128 714.244C12.4321 704.122 45.0235 656.417 34.482 607.691C23.9406 558.966 -25.7418 527.671 -76.4868 537.793C-127.232 547.915 -159.823 595.62 -149.282 644.346C-138.74 693.071 -89.0578 724.366 -38.3128 714.244Z" stroke="url(#paint1_linear_513_1200)" stroke-miterlimit="10"/>
<path d="M-129.973 732.251C-68.8893 770.726 13.1119 754.37 53.1822 695.717C93.2525 637.065 76.2181 558.327 15.1348 519.851C-45.9485 481.376 -127.95 497.732 -168.02 556.385C-208.09 615.037 -191.056 693.775 -129.973 732.251Z" stroke="url(#paint2_linear_513_1200)" stroke-miterlimit="10"/>
<path d="M-20.4891 796.63C77.6424 777.056 140.668 684.803 120.283 590.577C99.8977 496.351 3.82094 435.833 -94.3105 455.407C-192.442 474.981 -255.468 567.234 -235.082 661.46C-214.697 755.686 -118.62 816.204 -20.4891 796.63Z" stroke="url(#paint3_linear_513_1200)" stroke-miterlimit="10"/>
<path d="M-10.8963 840.971C112.739 816.31 192.144 700.081 166.461 581.366C140.778 462.651 19.7318 386.405 -103.903 411.067C-227.538 435.728 -306.944 551.957 -281.261 670.672C-255.578 789.386 -134.531 865.632 -10.8963 840.971Z" stroke="url(#paint4_linear_513_1200)" stroke-miterlimit="10"/>
<path d="M-221.636 866.422C-83.3808 953.507 102.22 916.486 192.915 783.733C283.609 650.98 245.054 472.765 106.798 385.68C-31.457 298.595 -217.058 335.616 -307.752 468.369C-398.447 601.122 -359.892 779.337 -221.636 866.422Z" stroke="url(#paint5_linear_513_1200)" stroke-miterlimit="10"/>
<path d="M-279.817 951.584C-92.5787 1069.52 158.779 1019.39 281.607 839.599C404.434 659.812 352.218 418.457 164.98 300.518C-22.2586 182.579 -273.617 232.716 -396.444 412.503C-519.271 592.29 -467.056 833.645 -279.817 951.584Z" stroke="url(#paint6_linear_513_1200)" stroke-miterlimit="10"/>
<path d="M-327.938 1022.02C-100.187 1165.48 205.558 1104.49 354.962 885.804C504.366 667.116 440.852 373.539 213.101 230.081C-14.6511 86.6232 -320.396 147.609 -469.8 366.297C-619.203 584.985 -555.69 878.562 -327.938 1022.02Z" stroke="url(#paint7_linear_513_1200)" stroke-miterlimit="10"/>
<path d="M-359.664 1068.46C-105.202 1228.74 236.4 1160.6 403.325 916.268C570.25 671.933 499.288 343.926 244.826 183.644C-9.63536 23.3618 -351.237 91.5 -518.162 335.835C-685.087 580.17 -614.125 908.176 -359.664 1068.46Z" stroke="url(#paint8_linear_513_1200)" stroke-miterlimit="10"/>
<path d="M-381.357 1100.04C-108.7 1271.78 257.327 1198.77 436.188 936.968C615.05 675.163 539.013 323.702 266.357 151.959C-6.29984 -19.7842 -372.327 53.2261 -551.188 315.032C-730.049 576.838 -654.013 928.298 -381.357 1100.04Z" stroke="url(#paint9_linear_513_1200)" stroke-miterlimit="10"/>
</g>
<ellipse cx="45.5995" cy="1051.7" rx="0.464243" ry="0.328659" fill="#C4C4C4"/>
<ellipse cx="6.15944" cy="1128.37" rx="0.927995" ry="0.658146" fill="#C4C4C4"/>
<ellipse cx="76.223" cy="935.863" rx="0.464243" ry="0.328659" fill="#C4C4C4"/>
<ellipse cx="104.063" cy="804.893" rx="0.464243" ry="0.328659" fill="#C4C4C4"/>
<ellipse cx="64.6233" cy="1152.06" rx="0.927995" ry="0.658146" fill="#C4C4C4"/>
<ellipse cx="211.711" cy="958.898" rx="0.464243" ry="0.328659" fill="#C4C4C4"/>
<ellipse cx="2.44753" cy="993.452" rx="0.927995" ry="0.658146" fill="#C4C4C4"/>
<ellipse cx="253.006" cy="1201.43" rx="0.927995" ry="0.658146" fill="#C4C4C4"/>
<ellipse cx="178.767" cy="1171.81" rx="0.927995" ry="0.658146" fill="#C4C4C4"/>
<ellipse cx="169.487" cy="1146.14" rx="0.927995" ry="0.658146" fill="#C4C4C4"/>
<ellipse cx="263.678" cy="872.023" rx="0.464243" ry="0.328659" fill="#C4C4C4"/>
<ellipse cx="53.0238" cy="881.237" rx="0.464243" ry="0.328659" fill="#C4C4C4"/>
<ellipse cx="214.495" cy="934.547" rx="0.464243" ry="0.328659" fill="#C4C4C4"/>
<ellipse cx="105.919" cy="856.886" rx="0.464243" ry="0.328659" fill="#C4C4C4"/>
<ellipse cx="129.119" cy="904.931" rx="0.464243" ry="0.328659" fill="#C4C4C4"/>
<ellipse cx="1022.31" cy="963.835" rx="0.927995" ry="0.658146" fill="#C4C4C4"/>
<ellipse cx="1013.03" cy="938.167" rx="0.927995" ry="0.658146" fill="#C4C4C4"/>
<ellipse cx="223.31" cy="857.873" rx="0.927995" ry="0.658146" fill="#C4C4C4"/>
<ellipse cx="654.828" cy="719.005" rx="0.927995" ry="0.658146" fill="#C4C4C4"/>
<ellipse cx="254.863" cy="923.688" rx="0.927995" ry="0.658146" fill="#C4C4C4"/>
<ellipse cx="225.166" cy="912.499" rx="0.927995" ry="0.658146" fill="#C4C4C4"/>
<ellipse cx="747.628" cy="693.337" rx="0.927995" ry="0.658146" fill="#C4C4C4"/>
<ellipse cx="136.079" cy="899.995" rx="0.927995" ry="0.658146" fill="#C4C4C4"/>
<ellipse cx="581.516" cy="828.915" rx="0.927995" ry="0.658146" fill="#C4C4C4"/>
<ellipse cx="1079.39" cy="1062.23" rx="0.464243" ry="0.328659" fill="#C4C4C4"/>
<ellipse cx="669.212" cy="698.932" rx="0.464243" ry="0.328659" fill="#C4C4C4"/>
<ellipse cx="1065.47" cy="1182.01" rx="0.464243" ry="0.328659" fill="#C4C4C4"/>
<ellipse cx="1219.98" cy="1206.03" rx="0.927995" ry="0.658146" fill="#C4C4C4"/>
<ellipse cx="765.724" cy="725.915" rx="0.464243" ry="0.328659" fill="#C4C4C4"/>
<ellipse cx="1133.21" cy="1123.43" rx="0.464243" ry="0.328659" fill="#C4C4C4"/>
<ellipse cx="1213.02" cy="1106.32" rx="0.464243" ry="0.328659" fill="#C4C4C4"/>
<ellipse cx="1117.43" cy="720.65" rx="0.464243" ry="0.328659" fill="#C4C4C4"/>
<ellipse cx="1163.37" cy="1147.46" rx="0.927995" ry="0.658146" fill="#C4C4C4"/>
<ellipse cx="1088.67" cy="1117.51" rx="0.464243" ry="0.328659" fill="#C4C4C4"/>
<ellipse cx="115.199" cy="1011.55" rx="0.464243" ry="0.328659" fill="#C4C4C4"/>
<ellipse cx="1072.89" cy="923.358" rx="0.464243" ry="0.328659" fill="#C4C4C4"/>
<ellipse cx="555.069" cy="770.669" rx="0.464243" ry="0.328659" fill="#C4C4C4"/>
<ellipse cx="1074.75" cy="1037.22" rx="0.464243" ry="0.328659" fill="#C4C4C4"/>
<ellipse cx="602.397" cy="745.659" rx="0.464243" ry="0.328659" fill="#C4C4C4"/>
<ellipse cx="595.901" cy="702.222" rx="0.464243" ry="0.328659" fill="#C4C4C4"/>
<ellipse cx="320.75" cy="967.784" rx="0.927995" ry="0.658146" fill="#C4C4C4"/>
<ellipse cx="214.495" cy="1039.19" rx="0.464243" ry="0.328659" fill="#C4C4C4"/>
<ellipse cx="566.204" cy="705.513" rx="0.464243" ry="0.328659" fill="#C4C4C4"/>
<ellipse cx="536.509" cy="694.324" rx="0.464243" ry="0.328659" fill="#C4C4C4"/>
<ellipse cx="244.191" cy="1062.89" rx="0.464243" ry="0.328659" fill="#C4C4C4"/>
<ellipse cx="338.846" cy="720.65" rx="0.464243" ry="0.328659" fill="#C4C4C4"/>
<ellipse cx="329.566" cy="694.983" rx="0.464243" ry="0.328659" fill="#C4C4C4"/>
<ellipse cx="244.191" cy="707.487" rx="0.464243" ry="0.328659" fill="#C4C4C4"/>
<ellipse cx="325.854" cy="716.042" rx="0.464243" ry="0.328659" fill="#C4C4C4"/>
<ellipse cx="1249.67" cy="700.577" rx="0.927995" ry="0.658146" fill="#C4C4C4"/>
<ellipse cx="1064.54" cy="889.793" rx="0.464243" ry="0.328659" fill="#C4C4C4"/>
<ellipse cx="154.639" cy="199.728" rx="0.927995" ry="0.658146" fill="#C4C4C4"/>
<ellipse cx="145.359" cy="174.061" rx="0.927995" ry="0.658146" fill="#C4C4C4"/>
<ellipse cx="91.0712" cy="334.318" rx="0.464243" ry="0.328659" fill="#C4C4C4"/>
<ellipse cx="199.647" cy="359.328" rx="0.464243" ry="0.328659" fill="#C4C4C4"/>
<ellipse cx="279.454" cy="342.216" rx="0.464243" ry="0.328659" fill="#C4C4C4"/>
<ellipse cx="229.806" cy="383.351" rx="0.927995" ry="0.658146" fill="#C4C4C4"/>
<ellipse cx="155.103" cy="353.404" rx="0.464243" ry="0.328659" fill="#C4C4C4"/>
<ellipse cx="205.215" cy="159.251" rx="0.464243" ry="0.328659" fill="#C4C4C4"/>
<ellipse cx="207.071" cy="273.111" rx="0.464243" ry="0.328659" fill="#C4C4C4"/>
<ellipse cx="92.9271" cy="252.05" rx="0.464243" ry="0.328659" fill="#C4C4C4"/>
<ellipse cx="86.431" cy="208.613" rx="0.464243" ry="0.328659" fill="#C4C4C4"/>
<ellipse cx="86.431" cy="124.37" rx="0.464243" ry="0.328659" fill="#C4C4C4"/>
<ellipse cx="196.863" cy="125.686" rx="0.464243" ry="0.328659" fill="#C4C4C4"/>
<ellipse cx="1251.07" cy="842.407" rx="0.464243" ry="0.328659" fill="#C4C4C4"/>
<ellipse cx="1130.89" cy="767.708" rx="0.927995" ry="0.658146" fill="#C4C4C4"/>
<ellipse cx="247.902" cy="1086.58" rx="0.464243" ry="0.328659" fill="#C4C4C4"/>
<ellipse cx="263.678" cy="814.106" rx="0.464243" ry="0.328659" fill="#C4C4C4"/>
<ellipse cx="300.334" cy="801.273" rx="0.927995" ry="0.658146" fill="#C4C4C4"/>
<ellipse cx="270.174" cy="789.755" rx="0.464243" ry="0.328659" fill="#C4C4C4"/>
<ellipse cx="457.165" cy="785.477" rx="0.927995" ry="0.658146" fill="#C4C4C4"/>
<ellipse cx="559.244" cy="724.928" rx="0.927995" ry="0.658146" fill="#C4C4C4"/>
<ellipse cx="85.0393" cy="692.679" rx="0.927995" ry="0.658146" fill="#C4C4C4"/>
<ellipse cx="1423.67" cy="973.378" rx="0.464243" ry="0.328659" fill="#C4C4C4"/>
<ellipse cx="20.0794" cy="812.462" rx="0.927995" ry="0.658146" fill="#C4C4C4"/>
<ellipse cx="1393.98" cy="1182.67" rx="0.464243" ry="0.328659" fill="#C4C4C4"/>
<ellipse cx="1421.82" cy="1051.7" rx="0.464243" ry="0.328659" fill="#C4C4C4"/>
<ellipse cx="1370.78" cy="1128.04" rx="0.464243" ry="0.328659" fill="#C4C4C4"/>
<ellipse cx="1423.67" cy="1103.69" rx="0.464243" ry="0.328659" fill="#C4C4C4"/>
<ellipse cx="61.8391" cy="406.386" rx="0.927995" ry="0.658146" fill="#C4C4C4"/>
<ellipse cx="52.5593" cy="380.718" rx="0.927995" ry="0.658146" fill="#C4C4C4"/>
<ellipse cx="51.1674" cy="633.116" rx="0.464243" ry="0.328659" fill="#C4C4C4"/>
<ellipse cx="130.975" cy="690.375" rx="0.464243" ry="0.328659" fill="#C4C4C4"/>
<ellipse cx="239.551" cy="641.014" rx="0.464243" ry="0.328659" fill="#C4C4C4"/>
<ellipse cx="161.135" cy="714.398" rx="0.927995" ry="0.658146" fill="#C4C4C4"/>
<ellipse cx="86.431" cy="684.452" rx="0.464243" ry="0.328659" fill="#C4C4C4"/>
<ellipse cx="104.063" cy="391.578" rx="0.464243" ry="0.328659" fill="#C4C4C4"/>
<ellipse cx="1055.26" cy="562.695" rx="0.464243" ry="0.328659" fill="#C4C4C4"/>
<ellipse cx="1019.53" cy="586.718" rx="0.927995" ry="0.658146" fill="#C4C4C4"/>
<ellipse cx="1010.71" cy="556.772" rx="0.464243" ry="0.328659" fill="#C4C4C4"/>
<ellipse cx="948.539" cy="455.417" rx="0.464243" ry="0.328659" fill="#C4C4C4"/>
<ellipse cx="860.379" cy="454.101" rx="0.464243" ry="0.328659" fill="#C4C4C4"/>
<ellipse cx="851.099" cy="428.433" rx="0.464243" ry="0.328659" fill="#C4C4C4"/>
<ellipse cx="847.387" cy="449.494" rx="0.464243" ry="0.328659" fill="#C4C4C4"/>
<ellipse cx="763.868" cy="519.257" rx="0.464243" ry="0.328659" fill="#C4C4C4"/>
<ellipse cx="765.724" cy="571.251" rx="0.464243" ry="0.328659" fill="#C4C4C4"/>
<ellipse cx="917.45" cy="609.753" rx="0.927995" ry="0.658146" fill="#C4C4C4"/>
<ellipse cx="908.171" cy="584.085" rx="0.927995" ry="0.658146" fill="#C4C4C4"/>
<ellipse cx="959.675" cy="594.944" rx="0.464243" ry="0.328659" fill="#C4C4C4"/>
<ellipse cx="175.519" cy="546.241" rx="0.464243" ry="0.328659" fill="#C4C4C4"/>
<ellipse cx="61.3754" cy="525.181" rx="0.464243" ry="0.328659" fill="#C4C4C4"/>
<ellipse cx="54.8793" cy="481.743" rx="0.464243" ry="0.328659" fill="#C4C4C4"/>
<ellipse cx="1303.03" cy="1233.35" rx="0.464243" ry="0.328659" fill="#C4C4C4"/>
<ellipse cx="517.949" cy="487.008" rx="0.464243" ry="0.328659" fill="#C4C4C4"/>
<ellipse cx="688.7" cy="673.264" rx="0.464243" ry="0.328659" fill="#C4C4C4"/>
<ellipse cx="768.508" cy="730.522" rx="0.464243" ry="0.328659" fill="#C4C4C4"/>
<ellipse cx="1146.2" cy="681.161" rx="0.464243" ry="0.328659" fill="#C4C4C4"/>
<ellipse cx="813.052" cy="586.388" rx="0.464243" ry="0.328659" fill="#C4C4C4"/>
<ellipse cx="698.908" cy="565.328" rx="0.464243" ry="0.328659" fill="#C4C4C4"/>
<ellipse cx="692.412" cy="521.89" rx="0.464243" ry="0.328659" fill="#C4C4C4"/>
<ellipse cx="610.748" cy="564.011" rx="0.464243" ry="0.328659" fill="#C4C4C4"/>
<ellipse cx="597.756" cy="559.404" rx="0.464243" ry="0.328659" fill="#C4C4C4"/>
<ellipse cx="427.005" cy="537.685" rx="0.464243" ry="0.328659" fill="#C4C4C4"/>
<ellipse cx="620.492" cy="657.798" rx="0.927995" ry="0.658146" fill="#C4C4C4"/>
<ellipse cx="1337.83" cy="1059.27" rx="0.927995" ry="0.658146" fill="#C4C4C4"/>
<ellipse cx="1129.5" cy="788.439" rx="0.464243" ry="0.328659" fill="#C4C4C4"/>
<ellipse cx="1131.35" cy="840.432" rx="0.464243" ry="0.328659" fill="#C4C4C4"/>
<ellipse cx="1248.74" cy="841.421" rx="0.927995" ry="0.658146" fill="#C4C4C4"/>
<ellipse cx="21.9358" cy="53.6201" rx="0.927995" ry="0.658146" fill="#C4C4C4"/>
<ellipse cx="1009.32" cy="809.171" rx="0.927995" ry="0.658146" fill="#C4C4C4"/>
<ellipse cx="1045.51" cy="796.008" rx="0.927995" ry="0.658146" fill="#C4C4C4"/>
<ellipse cx="468.301" cy="262.252" rx="0.927995" ry="0.658146" fill="#C4C4C4"/>
<ellipse cx="459.021" cy="236.584" rx="0.927995" ry="0.658146" fill="#C4C4C4"/>
<ellipse cx="593.117" cy="404.74" rx="0.464243" ry="0.328659" fill="#C4C4C4"/>
<ellipse cx="518.877" cy="221.775" rx="0.464243" ry="0.328659" fill="#C4C4C4"/>
<ellipse cx="520.733" cy="335.635" rx="0.464243" ry="0.328659" fill="#C4C4C4"/>
<ellipse cx="510.525" cy="188.21" rx="0.464243" ry="0.328659" fill="#C4C4C4"/>
<ellipse cx="644.62" cy="256.986" rx="0.927995" ry="0.658146" fill="#C4C4C4"/>
<ellipse cx="717.932" cy="357.683" rx="0.927995" ry="0.658146" fill="#C4C4C4"/>
<ellipse cx="455.309" cy="107.588" rx="0.927995" ry="0.658146" fill="#C4C4C4"/>
<ellipse cx="491.501" cy="94.4248" rx="0.927995" ry="0.658146" fill="#C4C4C4"/>
<ellipse cx="1013.96" cy="733.484" rx="0.927995" ry="0.658146" fill="#C4C4C4"/>
<ellipse cx="1260.35" cy="936.522" rx="0.464243" ry="0.328659" fill="#C4C4C4"/>
<ellipse cx="1137.39" cy="700.577" rx="0.927995" ry="0.658146" fill="#C4C4C4"/>
<ellipse cx="1436.66" cy="937.838" rx="0.464243" ry="0.328659" fill="#C4C4C4"/>
<ellipse cx="1222.3" cy="890.451" rx="0.464243" ry="0.328659" fill="#C4C4C4"/>
<ellipse cx="1092.84" cy="694.653" rx="0.927995" ry="0.658146" fill="#C4C4C4"/>
<ellipse cx="1309.99" cy="734.801" rx="0.927995" ry="0.658146" fill="#C4C4C4"/>
<ellipse cx="470.621" cy="26.3058" rx="0.464243" ry="0.328659" fill="#C4C4C4"/>
<ellipse cx="388.958" cy="68.4274" rx="0.464243" ry="0.328659" fill="#C4C4C4"/>
<ellipse cx="294.302" cy="55.2648" rx="0.464243" ry="0.328659" fill="#C4C4C4"/>
<ellipse cx="375.966" cy="63.8203" rx="0.464243" ry="0.328659" fill="#C4C4C4"/>
<ellipse cx="292.446" cy="133.584" rx="0.464243" ry="0.328659" fill="#C4C4C4"/>
<ellipse cx="208.462" cy="141.154" rx="0.927995" ry="0.658146" fill="#C4C4C4"/>
<ellipse cx="307.294" cy="19.7245" rx="0.464243" ry="0.328659" fill="#C4C4C4"/>
<ellipse cx="937.403" cy="322.471" rx="0.464243" ry="0.328659" fill="#C4C4C4"/>
<ellipse cx="968.027" cy="206.638" rx="0.464243" ry="0.328659" fill="#C4C4C4"/>
<ellipse cx="858.987" cy="200.386" rx="0.927995" ry="0.658146" fill="#C4C4C4"/>
<ellipse cx="894.251" cy="264.226" rx="0.927995" ry="0.658146" fill="#C4C4C4"/>
<ellipse cx="1146.67" cy="194.463" rx="0.927995" ry="0.658146" fill="#C4C4C4"/>
<ellipse cx="1116.97" cy="183.274" rx="0.927995" ry="0.658146" fill="#C4C4C4"/>
<ellipse cx="1027.88" cy="170.77" rx="0.927995" ry="0.658146" fill="#C4C4C4"/>
<ellipse cx="1135.99" cy="333.661" rx="0.464243" ry="0.328659" fill="#C4C4C4"/>
<ellipse cx="911.883" cy="83.2356" rx="0.927995" ry="0.658146" fill="#C4C4C4"/>
</g>
<defs>
<linearGradient id="paint0_linear_513_1200" x1="720" y1="0" x2="720" y2="1241" gradientUnits="userSpaceOnUse">
<stop stop-color="#040327"/>
<stop offset="0.24495" stop-color="#0D0E13"/>
</linearGradient>
<linearGradient id="paint1_linear_513_1200" x1="471.896" y1="1063.82" x2="-146.114" y2="572.37" gradientUnits="userSpaceOnUse">
<stop stop-color="#F9BDB1" stop-opacity="0.24"/>
<stop offset="1" stop-color="#040327"/>
</linearGradient>
<linearGradient id="paint2_linear_513_1200" x1="471.896" y1="1063.82" x2="-146.114" y2="572.37" gradientUnits="userSpaceOnUse">
<stop stop-color="#F9BDB1" stop-opacity="0.24"/>
<stop offset="1" stop-color="#040327"/>
</linearGradient>
<linearGradient id="paint3_linear_513_1200" x1="471.896" y1="1063.82" x2="-146.114" y2="572.37" gradientUnits="userSpaceOnUse">
<stop stop-color="#F9BDB1" stop-opacity="0.24"/>
<stop offset="1" stop-color="#040327"/>
</linearGradient>
<linearGradient id="paint4_linear_513_1200" x1="471.896" y1="1063.82" x2="-146.114" y2="572.37" gradientUnits="userSpaceOnUse">
<stop stop-color="#F9BDB1" stop-opacity="0.24"/>
<stop offset="1" stop-color="#040327"/>
</linearGradient>
<linearGradient id="paint5_linear_513_1200" x1="471.896" y1="1063.82" x2="-146.114" y2="572.37" gradientUnits="userSpaceOnUse">
<stop stop-color="#F9BDB1" stop-opacity="0.24"/>
<stop offset="1" stop-color="#040327"/>
</linearGradient>
<linearGradient id="paint6_linear_513_1200" x1="471.896" y1="1063.82" x2="-146.114" y2="572.37" gradientUnits="userSpaceOnUse">
<stop stop-color="#F9BDB1" stop-opacity="0.24"/>
<stop offset="1" stop-color="#040327"/>
</linearGradient>
<linearGradient id="paint7_linear_513_1200" x1="471.896" y1="1063.82" x2="-146.114" y2="572.37" gradientUnits="userSpaceOnUse">
<stop stop-color="#F9BDB1" stop-opacity="0.24"/>
<stop offset="1" stop-color="#040327"/>
</linearGradient>
<linearGradient id="paint8_linear_513_1200" x1="471.896" y1="1063.82" x2="-146.114" y2="572.37" gradientUnits="userSpaceOnUse">
<stop stop-color="#F9BDB1" stop-opacity="0.24"/>
<stop offset="1" stop-color="#040327"/>
</linearGradient>
<linearGradient id="paint9_linear_513_1200" x1="471.896" y1="1063.82" x2="-146.114" y2="572.37" gradientUnits="userSpaceOnUse">
<stop stop-color="#F9BDB1" stop-opacity="0.24"/>
<stop offset="1" stop-color="#040327"/>
</linearGradient>
<clipPath id="clip0_513_1200">
<rect width="1440" height="1241" fill="white"/>
</clipPath>
</defs>
</svg>
